<mxfile host="Electron" modified="2024-05-23T09:06:11.334Z" agent="Mozilla/5.0 (Windows NT 10.0; Win64; x64) AppleWebKit/537.36 (KHTML, like Gecko) draw.io/24.4.0 Chrome/120.0.6099.109 Electron/28.1.0 Safari/537.36" etag="aNMTDXerGciSyXLLQlxB" version="24.4.0" type="device">
  <diagram name="第1頁" id="h2lY5hdHlorG33wJxP33">
    <mxGraphModel dx="2261" dy="844" grid="0" gridSize="10" guides="1" tooltips="1" connect="1" arrows="1" fold="1" page="1" pageScale="1" pageWidth="827" pageHeight="1169" math="0" shadow="0">
      <root>
        <mxCell id="0" />
        <mxCell id="1" parent="0" />
        <mxCell id="WQ-GjiMRhla3c69hf5Uh-1" value="題目: 給一個 pair of array to find the quries." style="rounded=1;whiteSpace=wrap;html=1;" parent="1" vertex="1">
          <mxGeometry x="91" y="43" width="694" height="60" as="geometry" />
        </mxCell>
        <mxCell id="WQ-GjiMRhla3c69hf5Uh-2" value="了解Union Find" style="rounded=1;whiteSpace=wrap;html=1;" parent="1" vertex="1">
          <mxGeometry x="-607.5" y="140" width="120" height="60" as="geometry" />
        </mxCell>
        <mxCell id="WQ-GjiMRhla3c69hf5Uh-3" value="&lt;ul&gt;&lt;li&gt;&lt;span style=&quot;background-color: initial;&quot;&gt;把題目的pair of array變成Tree的形式&lt;/span&gt;&lt;/li&gt;&lt;li&gt;並思考如何做出Union和Find在這個問題&lt;/li&gt;&lt;/ul&gt;" style="whiteSpace=wrap;html=1;rounded=1;align=left;" parent="1" vertex="1">
          <mxGeometry x="-708" y="224" width="321" height="60" as="geometry" />
        </mxCell>
        <mxCell id="WQ-GjiMRhla3c69hf5Uh-5" value="根據觀察可以把pair of array中的element，當作node，建立Graph，後value當作weight。" style="rounded=1;whiteSpace=wrap;html=1;" parent="1" vertex="1">
          <mxGeometry x="-324" y="140" width="360" height="60" as="geometry" />
        </mxCell>
        <mxCell id="WQ-GjiMRhla3c69hf5Uh-9" value="" style="edgeStyle=orthogonalEdgeStyle;rounded=0;orthogonalLoop=1;jettySize=auto;html=1;" parent="1" source="WQ-GjiMRhla3c69hf5Uh-7" target="WQ-GjiMRhla3c69hf5Uh-8" edge="1">
          <mxGeometry relative="1" as="geometry" />
        </mxCell>
        <mxCell id="WQ-GjiMRhla3c69hf5Uh-7" value="使用union和Find的方式，建立Directed graph。" style="rounded=1;whiteSpace=wrap;html=1;" parent="1" vertex="1">
          <mxGeometry x="-311" y="211" width="244" height="60" as="geometry" />
        </mxCell>
        <mxCell id="WQ-GjiMRhla3c69hf5Uh-8" value="之後根據Path來決定回傳的數值。" style="whiteSpace=wrap;html=1;rounded=1;" parent="1" vertex="1">
          <mxGeometry x="-331" y="300" width="284" height="60" as="geometry" />
        </mxCell>
        <mxCell id="wwXoRMNMFzhy1zM1JOkh-1" value="Build Graph" style="rounded=1;whiteSpace=wrap;html=1;" parent="1" vertex="1">
          <mxGeometry x="370" y="123" width="172" height="60" as="geometry" />
        </mxCell>
        <mxCell id="wwXoRMNMFzhy1zM1JOkh-9" value="" style="shape=image;verticalLabelPosition=bottom;labelBackgroundColor=default;verticalAlign=top;aspect=fixed;imageAspect=0;image=data:image/png,iVBORw0KGgoAAAANSUhEUgAAAZQAAAE4CAYAAAB8GwU1AAAAAXNSR0IArs4c6QAAAARnQU1BAACxjwv8YQUAAAAJcEhZcwAADsMAAA7DAcdvqGQAAH7ASURBVHhe7Z0HYB3Ftf6/29V7L7ZsufeCC8b0kNBDS4CQEFJfKunt5ZEXUv6Bl0YIJKSQAiSE3kwz2Lgb915kS5Yly+q969b/+UZa+1qWZBmubcr5meVe7c7OzM7Mnm/OzOxeW0hAH52dnX3fFEVRFGVgYmJi+r4di73vU1EURVHeFiooiqIoSkRQQVEURVEiggqKoiiKEhFUUBRFUZSIoIKiKIqiRAQVFEVRFCUiqKAoiqIoEUEFRVEURYkIKiiKoihKRDgjr15xOBxms9uP1TNmJRAImC0sW4qiKMo7iMFevXJaBcXpdMJms6GtrQ01NTVoaGiA1+uF2+024hIXF4e0tDSkpKSYv/1+f9+ZiqIoyjuFMyooFBFCIamoqMD27duxdOlSbNy4Ec3NzcjOzjZpjxkzBueddx7mzZuHcePGISkpyXgqYVl8D2ODnV6bLYSgeGhBddAURXmHcsY9FHokjz/+OB599FE0NjYiNTUVGRkZxmvhJ0Wmu7vb5IHeyS233IL/+q//QnJycl8Mw8BmF4Pc9/04eoXpnapNoZAfPe3t6Aw4EB0XiyinXSRGURTlnccZExR6J6Wlpfj5z3+Ol156CXl5ebjssstw4403Gi8kLHkjNH/605/w3HPPmbxcffXV+NKXvoSCggIEg8G+UIPRG09Iuvb9NYN/Mx/2Pk/pzGKTf+F5lL8dfnQ3bcOzP/1f/Hn/BHziJ9/BddNzkCwiE+gLpSiK8k7hjLy+3povufvuu7Fo0SLMmjULP/nJT/DDH/4QEydORE9PDxYvXoxHHnnEzJdkZWXh+9//Pu68806MGjUKTz75JP7+97+jpaWlL8bBcMAd3YDSFffiu7PnYP78eWbYjNvcuXNw4eU347/ufAiv7atDj9Mloc8Q4kH1LkgYwJMSwfT1dKGrqwe+E4qnoijKOw/Hj4W+7/D5fH3fIoPL5cIf//hH43FceumlRizmzp2LqKgoc6yystJ4Ljt37sRVV11lJuU5BDZy5EgjKFVVVVi9ejU8Hg/mzJnTF+tAiKF2t6FmxxosfmoTDhZMwdyJo8UbykZufhZi20qxY/MqrHizBt6UPBROyUacP3CcJ3MqsTncCJatxYuP/h5PbWmFP3k6xqcFEKB2hCT/rmSMnHWReG8XYlZBOhKcOuClKMo7E9rvgTilHgqHul5//XXTK7/kkkswe/ZsIw5cFkzoldTV1RkPpHd+o3fZMAVn4cKFZsiLYTiBX1ZWdszw2PFwKElsc1w6Mhd8BN/69nfw3e98F9/99vdxx9334M6PzUF2/et45YXXsbHIKwVyOg22pCVl0HVoC95Y/ApWbD6INv+xXorNEYPU/HEYPzYf6dH0ok6n3CmKorx9TomgWKu63njjDZSXl+PKK6/E/PnzzTyIJSaE4axnUsJhGCrghRdeiCuuuAIHDhzAmjVrTjyPQlGyu+FJzsXoMWMxYdwEMdATMXnGOfjwZ27E5RMT0Vy0GxtLasWA89JFhOxOuEXAotxc0twbzVFssDvdiIqW487worLD6ZF9UW447SIMDidc/Ds6GtEM63HB5QiLzO6ARzwOV6gLra0d6BYxiYmRtF2Mw9lbCZK4ra8swoWG6Xskfx4X9zvgdPOco+k4+jLN63C5PWF5cB+bh2PgijIX3EfyHC1xeuCWaxx8UYOiKMrQnJIhL+uBRQ53cTjrC1/4gpnPCI+fhpOT8M8++6wRlptvvtlM9FheCMWDK8HovTz99NNISEjABz7wgePEpxcOGbWjbs9GrHjtINpnXoCPzs6Vvb0CRg1zp/SgesV6rCm1IUnE7fJJmQiGOtFRuxmv/eUpLGqMwaS8FES57NSlvjibUbnpdTzzyBvY5MjA1JwEuTbRLX8ttj//N/xrTROiclPhbNiNNxc9iaeeX4TXVmzCnsNd8CZkIz/RJaZbRLBxK178++N4+uWlWH9APLKObjQeKsbW1euxuQhIn5WL2O4KbHnuITz+QiX8o7ORmiCG3tmDym2v4qUXl2FTaxxG5XRhh0nnBby6bCv21gaRnJuB5KRoeCt2YOPrL+CpZxbh5WXrsPMgh9XyJA8O+kdH/R2bEx57JxpKtmDlyy/guUXP4ZWla7Bp72E02VKQlREHN1VFHSRFUQbhtA95URj2799vhIDPk1j7wrGGuCgoFBvOn4Q/Pc/vPJdbfX193963gvT+/T3o8fZIT168A+nN08janV501q7HS/fci3te2YV2b1B66FYXXbwnJwXlBTz0yz/hn+sPg49Z0tYGRVC2PXcvfvPoG1i65Fm8+NzjePLFN7B69VIsfuqvuP//fon7/v4SNleJoMkl23vqsH/TOmzdX4mWHsDbchjFO1di1epN2LxD9onm+DoPYeNTv8c9//cs1la1o0uE0+nwonrHS3ji4T/j/idfxbJn/47HFi3HytWv48WHHsA9v/od7ntxG0p2r8Arz/wbDz3xMlasWYUlL/wLD/zmbtz710XYVGmDP2jv877EU3K3o2LD0/jP/b/DHx96Gi+tWo21K1/Fokf+gnt/+wc8tvIAWn0BKXurHBRFUYbHKRMUwocWc3Ol9x0b27fnWKhyXNnFcJy437Jli3lynsJCsaGXwvkUPovCFWH9BWlAxHKaoSOnyzyB7+YwUJQDHUV7sauqDfbMfBRmpZpVVeyF2xweRIvoJUSLN3GcDRUvxRODuIR4xHrEMzqiNQ64YxORGijG+sWrsK89A3Nu/hq+/5O7cee3PoHLcqux47G/4m/LytDilWTSzsI1P7gT3/vMBzApw4HUiRfilm/dg9/85vv47lcXYLQrJAZc4oyJR0JiDDwOuQZJJkRRc8chwd2J9uINWPFmJ8Zc9ml8/Yd34n++eTMWRG/DC39/AL/7xQN4cV8I6Zd8Gt/635/h59/7NK4b14ztj/4Jf19Zjg5fyAyN2Z0BNO59Cf986EksLndj0oc/j2/e8X+4+2d34Gs3no+cwy/hzw88iuX72tAVPHboTVEU5UScUkGhENDzCJ83seBkO49/5CMfMQ82PvDAA7jrrruwYsUKtLe3H/FW+LAjn67v6OjoO3MIKCZBH7zN1Th4oBj7i2Ur2YudGxbj3/98Geu6R2DmpR/CeRPT4PedYD5mKPoMrb1oE6rjF+CiGz+Hz3z4fMydtRAfuOFT+K/PXYZxnmps2bQedV4fglGpGDV+AsblpSLOGYIrJh15oydj2vRJmFiYicShhJIeW30dQh1u5H7kv/H5687Dgrnn49JPfAFfuH4mcmtewX/etGH0RR/HVz91JRbMnoPzLrsBn/v01ZgUXSMivRFNPV6ERB2c3oN4458PY0XjBJx3+y/wv1/+KC6fPxsz5n4AV33+2/j+Fy5ActFivLymAnXtIkKntHUoivJe45SajMmTJ5vnUJqamo4TFXofXCZ83XXX4Xvf+555RmXfvn3Sa/8N1q5dawSF59B7oXdCT8ea7B8U6eU7uxtR/+aT+PWvpOd991345a9+hh//4P/hH1tdmHD15/G5q+djQkw33o6e9M4vhOD1LMAHPrQQk0cnIiTC4feLeHriEDV6IsZmBuCtrkW1n8Ne4m2FbAhYD10a70s+5X9H9g1GKAC/PRcZI8/FuWeLZyVl4vdJWdpiMHbMZERHx2HEwvMwd9xIZMILr88Pv+TBVTgJ43KC6G5sQk0gCL+kEixdj3Xra8Vry0SqrwXF27dg61Zu27Bj1w40RCUiF80oLS1BW1fXictbURQljFMqKHwqnp7Fpk2bzPLg/hM5FBUKB1dz/exnP8N3vvMdY8RKSkrM0Fdtba2Z1OccypQpU4zHMiT0ULzd6C7bix3btmPblq3YuGINikMTceVXvomv3HI2xDmBzz+kCR8eFIWxOcjMiEa8g4JhdiLEoSJnDGKcAQRLWlEnyhUQu/yWTTMFJyUe0eMykevufXbGyr3bHSPx2pCXPQJJCSJqvZmQAJIHeyxiYpkuU5YtFET7wXIcFM9wy+oH8Zvv3IxbPvFJfPKTt8l2K2795OfwX3c8hQ3wiAh2wBvwqaAoinJSnBJBseY6+OwJV2q9+OKL2LFjhxGEwYxUeno6rr32WvN0/G233WbmP7Zu3Wpe18KXR/KlkTx3yHkU8RB8ifkouO2XeHnx61iy+EU89vNPYTbewMP3PIhn1pSg1dG3TPc4ek3v8GAeJLTT1btsuHdnGJZh7/14e0gk4nnZ7S4MvK4CcEkGjtfafonLnx3d7ejsTMDECz+Gz/3gf/GjO/4b//1Da/shfvg/d5h9P7r6LOTHu+HnigJFUZRhckoFZcaMGeYJd74Y8uWXX8bBgwfNg40DQbGg4HASnsuH+ewJxYSeDZ+uH5aHInAi2+bymGc3ouNTUXD5d/C9T1+C8S1v4NknXsea3W0iVv3iYXYHVBPZSa+n7693M7wGPkpjC1bDnjQWU+Zdi6uvuhJXXtFvu/xyXDG3EMkxLjMcpyiKMlxOiaBYUCT4xmAKwvLly3Hfffdh8+bN5kG6gTwV7qPgFBcX4/7778e///1vFBYWmifmrZVfw0LCMawJLz37UR/+HG64qADY+hyefOVNbG/1wG1nXA7Y3FFwpgYRqqtHQzAAvyUffHNxSwc661tQa1ZdvT1hYVZcNpE7ieSMmGm5nuScfOTG2dFQVY7GllYj3r0r4Xo3lr15yNEt5fJ2LlZRlPclp1RQOEfC3zj51re+ZTwMviCS7/O65557jOdBg0YjRmNGQ8YVYQ899JB5eSS9Ez4MyXOnTp1q4jp5OKfhRyh6Ai7/yJW4KLsdu55/Bs+t2otOj1MOR8MdPRL5I7oR3LkNa8pt6A454Rbx8kQ5ULt3B97csBH7JH9vp6AoIEFRlKSkNERHxaIn4DcT9XZJx+l0nNpKMEg5iKA4J07FzPFpCO18HUtWb8Hedg+i+AQ+FzO4nOK9tGLX8jWoaGmHn8OTfWcriqIMh1Nuy+h1cOjr85//vHk/1549e8wT9HfccQf4kD5fDvmHP/wB3/jGN/C1r30N9957L1auXGlWfVF8zj//fCM8b4eg34bEKVfj8kvPRn73BrzwzItYsq8bdpsLMXH5mDV7MpJq1+Nf9z6Ah19ehfVbN+C1//wOD7y4HJtakpEv3szb9ipEEB25WRiZkIDuPZuwdOlL5sHGdUvXolhMtxmq6wt6qgjETsUHL7sYZ6XXYO0Tf8Av730ITyzdiG07NmLFiw/i9z//CX7+9BYc6PBJy1A5URTl5DjlgmINPXEuhYJB7+Pcc8/Frl278MwzzxgB+e1vf2teYb93717jjXz96183AsP3f9F7GZ53EkIw4ENPVxe6ff3eJBwKwOvMxtSrrsSl5yShfcWT+Pu/lmNPO+CMzcakSz6PW6/KQWjTf/Dgr/8f7vy/e/CXp7eiJWUUZs4eg+zmNnTy7cRWpKEg/D2d6Orywj/APEMoKOl181X0XuOJmMyIp+RPn4mLPngB5idXYc0jv8Cdv/gDHnl1P2oDXGzAOLvQ2cnX11sCxmvyDnxNQkiut7urEz3e43/hMSTX7OuWPPb4jHfUG1cCCs77GD77pVtwYW4rdj73B/z+Vz/Fz//f3bj3waexZGszUiZPQ0ZsLJxHLlZRFGV4nNLX14dDTyUnJ8fMp0yaNMn8aBY/R48ebX4b5aKLLsINN9xg5kv4A1wjRowwS4eHN28ivXubGGSvKGRMDsbOOwtzCpKPvDjRIEbek5KKtKQUpHlikZQ7EqMmjEJGlAuetJGYOC4TWWnpSIiLRVxKFsafdQWuueI8zC1IgNOTiwnzJc78xN65BRp/nx0Jo2Zj/oyxyE30wG4sOvNBQ8+nPuKQNXEu5p49BpluBxxyTtCRiowRmcjLTUGcJxrRKTkYM/sczJmciXgRgIDfhWSJc87CiRgR74FbYvF7/XAljEDh1NmYNSYFLr7v3lxWCA4RqS5PGibNWoDphemI9wR7Rc8m/5NwQcQgc+I8zJ+ch0SXHTYJH5TyGTl+PMYV5CEjORaJcdHipWUgf8J8nH/Zdbjp8jkoiOPwl8TFZBRFUfox2Lu8TttPAIfDCXZu/WFWel/mSG/gJM1ZyAa7ywOXREvD2S2G+Hj4wkfrTcD0CMTDMMn0vlXY3fcbJNzFlzoGxCsI2pwSp+ynN8AHCg12uKLc5hXzARFhn/lRk6OYNxjz7cV9aXD1be/VhOSYy8xXMAu96fjFmxFDz9e5uF0wvynvlTjFoPNhSJNfLs8KMZxPLrM3jwaH27zMksd8cr3hq3yP5kE8lZ7eOZsj8K3FkgenGdbqzYWBD1H6JOwRD0lRFOV4zthPACuKoijvLc7ITwAriqIo7x9UUBRFUZSIoIKiKIqiRAQVFEVRFCUiqKAoiqIoEUEFRVEURYkIKiiKoihKRFBBURRFUSKCCoqiKIoSEVRQFEVRlIiggqIoiqJEBBUURVEUJSKooCiKoigRQQVFURRFiQgqKIqiKEpEUEFRFEVRIoIKiqIoihIRVFAURVGUiKCCoiiKokQEFRRFURQlIqigKIqiKBFBBUVRFEWJCCooiqIoSkRQQVEURVEiggqKoiiKEhFUUBRFUZSIoIKiKIqiRAQVFEVRFCUiqKAoiqIoEUEFRVEURYkItpDQ9x2dnZ19304HNtjtDjhcTjhsIQR8PfAHgCOZOQF2h5zncEgcNthsssmZvJJQMIBgIABfINgXUlEURYkkMTExfd+O5fQLis0Oh9MJe8iHjvqD2F9UgvKGWIyeNwujUtzwiLgMKSoiQm4H0Fp1AOWVVaipa0Fnlw8+mxMuZzTi0zKQljcCYzNiRWj6zlEURVEixhkXFJt4FC67HQFvO1oa6lB5aD92vPkSnn38JbyxbwK+8thf8V/zU5HmCiAwoKLQE5GPrjqUH9iNN199Hq+v2YjN20pR1dCGTkQhNjYNObMX4tyPfQW/uH6iCI/4LUOqk6IoinKynFFBsdn86GxqRFN9A2pESDatXISX31iNTWWd4qm4xWOZiy8+dB8+PTcFqc6BBIXDYyIOHVXY+9o/cM8f/4Fl+9rQFYpFTGwcYuPccNqC8LU2oTFWvJOP/RjPfeUcRDtVUBRFUSLNGRQUG5zuw1j11wfw4APPYk1NJ3xOB+wOO2xeL7xBF+zOOb2CMmdgQbGJZ2Prrkb58r/hjp88jLWHexCMSUR+4UxMmToNU6ZlI8XZidrt27G93gfbnE/ino/PgkcFRVEUJeKcQUGxwxW1A8995y7c/+By7I5PQU7hKBRkx6BnxZvYJoICxxCCYnPAiVZUbX8Gv/v+XXhmXyd6UIizP/11fO3mBZiSE2u8Fy5XC/p98PFkRxRiohwiZYqiKEqkGUxQTs+y4VAQodgs5J91OW757q9wz59+i//5xGzkiu0/kQdhczjQU3cY2158Fs8XU0xcmPixb+EHn7wIcwpTRTii4HG54ZLNExOH+Ph4xEc7T0JMrFVifX/xu7X17bM45phsg3NsOLP1HVEURXmvchoEJQifdzwu/MIP8PO//D985+aLMH9MMuJjXHD0hRgcrghrRn3tOqxeuh0dgWjYsj+M6z91Ngry4mAPhhAMiliJKplNvvPv4HDHucTQc/mxy+WC0yFGX747RZjcbm4u2e+AOD8IUSDMEmfrmGxyzCHnH0dfnEfj4cb47SoqiqK8pzlNq7w4qS4G1YxL2eF012L/8ofx21t+hxeCLtgGm0Oxu+DpKsHWZ+/HN+74D4pdKUi/4k489pOrMCY5Fk4uMLaMulxGMOgX8fINskqsHxSIrkbU716OF3Z3IfusG3B+7C6s2bAZJXVd8NmikTZ+Ds6aNRMTkzrQVLELq9Zsx4G6ToQcLsRmTML88+egIEkEQzwwPvVCQYK3DdV738TabWWobeuW/Ta4o5KROfNcLBibibQY+/DypyiK8g7lzA55ieEPBkUo/LKJVzFce2qTXr2/tRXVpQdx0AvxVlwYO3YS8nsqsOWFv+E3P/kmbv/SZ/GZr3wD3/7J7/HIS1txsEcMvHgbJ0a8jqAP3qZKlJYUoXTXMjz96jocaBMRc4fQUXMQO1Ysxdp1q7B+904se2UldtUB0XFRsLeUo2jbKrz46haUNXQg5BSxtDkRaKzAvlXP4pklG7GnshP2mATES1yNh7Zj2/56tHSJrzOQV6MoivIewPFjoe87fD5f37dTCYexOtFYth1vPr0O+0IO8VxyMefayzEzNxox9qOCY3e40V61E2tf/zeW7OtGVHQMZs2fi6YVD+Nfjz+DF15fjjXrt2D77iLsK9qH/XtLcbghhPj8cchP6ItkMMRdsvva0V69H5tLW+Dr8iNm7DTMnDkT08aPQWEK0FVfgeKDZTjc1I0u5wgsWDgP0yePwaicFPiqi1BS2ozovAJkpiUhztWF+gNbsXbpRpQ7C7HwA+dhztSJGDt6JPJyM5GemoMR6XGIdtuHLaiKoijvRDhNMBCnyUN5a7A33+PrRHN7rXlNS8Dbif3L/47f/eVZbKp1IHvahbjw4oWYMyoJUZ2V2LvpVTz9tz/jwcdXo6idszcnxhYKIQAHuqNH4pxz5mHGuHzkjxyLyfNmY+qEbDgbmtDSasOI8y7EnMkFyM8diVFT5uGc8ZlIRjUO1XaiqVNE0t6J9s5m1DY6kJgxGtNmTsSYEbnIHTkGM+ZdgHOnZCE5xj78+R1FUZR3Ge9oQenFmn+xwdvdg01L1sE/4Sp85DNfxTe/821865u34yufvwlXnDsZ+UkheFuLsPq5h7Bol3gdwWGsrhIDb3e6kTR2KnLdkprfbzw1f7R4HQmJSImKQ0rGSEwsjIOfx2QLBu3Iy0qDJ8qP7o4A/F5GxKXK8UhO8KO19iC27T2IisYu+EU/gv6ApOGQ0tbhLkVR3ru8CwSlD/bsbS5E55+Lj//gp/jWlz6OK8+dg/kLrsD1n/8+vve1G/HBsbESrBPdzTuxds1edPNtkyew4Rxg40smUxJTEDKrBnr3IsR5ERGkaA/c0fFIMdPrR7E7nRI3w8iHjXNEcUjNGouZM/MR1bEXS554HotXbcauooM43NABn8m/CoqiKO9d3hUeislmMAh4opF+8Q24YXYUotGDnh4vvN4udPuikJU/AwvPngGPhPf6/Cg7XIp6LiE+sY9iRMUI1jFYf/M9xjaJp9/x/n8GfXCkFWDC+dfgIxdMQWFiF6q3vIonH34ETy5eh12VregJiDfUF15RFOW9xjvevjkdbkS54s3cg1M8iZG5eYiDw8x9WDadr6y3J8QhLTMdo2S/jSvJOn3olAD97P4pJRQIiEeThoKzr8XHP/0ZfOzyBZgx0oX2ojfw5KJNOFjbAThUUhRFeW/yjrZuwVAQcTEJyE4baTIaEqFobW+Dn9PtxwwfyXeKiHgkAfmLIsL3f52JKQsbh8H4iv2YJORMvwCXfuR6zM6Jga10L0ol781cXdYXVlEU5b3EO9q2scfvSUpFwdjxGCPiEPB5UbJlK4p6/PDSMHOOQza7w4bu+nqUlpThoIiLw+VCQk4GcuXYiZ/GjwRULi983i50tPNZG24ienYn3J5kJMY54HDy3WIiNr0nKIqivOd4Z3eW+euL8TnImDkPZ08VvyPQhZ7tT+KvT+xHXXsITr4yxeWGM1SNgztX4I2Vu+CDC/HR+Thv1jxEc2XVCQa9zNFBgpiXCAx6evgxES5nKw7vWYIn/vBHPPL8MqzbtgPbt67Giucfx8riJqBwOkYnJCIxJNfUd5aiKMp7iXf46EsQgVA0MkefhWuv+xDGeH1AZwXW/vkOfPfHd+O3f/orHvr7/fjlj36IH/3uMays9AJxqUhbeA1unJ8A1wl/YCuEkN+L7p4eeANH52QsQgHxhHjMLyJwjGshIYN+9PR0o8dnvTssFtFRcYhGFUo2vYHFLzyH5194HauLWxA96Src8KGpGJXqkTiHzJCiKMq7ltP0Lq9wnHBH1aF4OO/yMkjv3xZAT8UmvPbnX+P/PbEGpa02uJPTkZEYg2iHH+3NjWhsaERXVA4mXPJJfPXrt+HqCclwDGm7bbAFutHdWInSRh9i0guRm+Q4Mmdus0u8dTWoqesAEjKRn5sElykqKksQtrYqFB9uQjBxBHLSEhHvkTx2tKCpthZNHRQoEwscUTFISM1FTooHTjk1qHqiKMq7nDP6i43HQkGpwf6l/8DdN/wKzwacIijzcfvjf8Hn5w3yE8A2B+zBHnQfWo/XF7+KVxe/iU1FB1BW12p++jcxLQsFhRMxc94H8MHLLsJ5M/MRHTQW/QSIqDgccNrFkwn44O83FmXeMOwUhTHvIeu3cFiOcdUZ3wfm54IAOcgJebvs653b6Q0W4qv7g0H4AzrQpSjKe4N3kKDY4XB1oKFkI5b/ayV2Bx2AIx/n3Hwd5uTHIMZ+3BMfvfQZa0dPBXav2YAt+8twqKEN3bYoxKekY2ThZMyYOh1js93we33qCSiKopwi3kGCwl47V2K54XZZq55CCHoHnsc4DvFWXB4XnJYL0EcoFICfr0zROQpFUZRTyjtKUBRFUZR3L2f491AURVGU9zoqKIqiKEpEUEFRFEVRIoIKiqIoihIRVFAURVGUiKCCoiiKokQEFRRFURQlIqigKIqiKBFBBUVRFEWJCCooiqIoSkRQQVEURVEiggqKoiiKEhFUUJR3EPwdGTvsdm7Hvk1aeRuY3+eRMu33hu53Lu+2/CoWp+FtwzZjHGzHvW6eP0oVlK1vx7seuUa5TtrBUDDU97PAYZibWjbzlT9NzONSBvxxLhNgaMy5LENufefy84S/+yLhTfnzJwL6/zxAX5wmXsZp4usfYV8Ynn/csUgThK+rC94gr84JT7Tb/PgZy0zpD+tFPqROhqwVCcSfsvb7vPDb3Ih2OXjqW6CvHfQ/16Qv/yLYNELBAPxeLwI2Fzxu5/FpKmecM/f6ehENn88Hn5+/oHi04Tmcbrg9bnGRTrWR4j1l7ryINvrjCSHg96LHDzhdLrgc1m+9CLwRQwEEAgEpCz+C/PFGhxMulxNOhjM35WD05l2sAvx+MQzmlyNFJJxyvtMFh/0E1yXneXt8CITEQEf1/prkEaRuAmJovPypSocLbsm39RPIvdCYM10JJzXlcoZdU0SRWG0+9LQdwponnsPOFsAfNwkfuGo+JuUmwylt59S3kncXvb8EKl/ozYVVSv+2bpd6ba8qwsZli7E/4QJ88gPjpN3JXXeSBcr0gtJwjztP0rNLW3Ywzb5dJ4PVmbHO5S+odtYdxKbXnsfehIvxcclvjNtxGjozyslwZgTF5oB7x+P44Z+exbLdVXCLtWJiAV8P0saejeu/ehdunGb11k8NNL5s7PQegsP0Bk4Wm9ODnr2L8dS//oz7N7ox7YrP4EdfPBdZPMYAYqQ7d7yCp198FW+sL0ZlE+DOGI1Zl1yG66+/DFMTe2/UgfJmk5sVrRUoXrcI/3p+GXburke7MxGZE8/CxdffjA/PyUNylO34HxazifH3tqN29d/x0/uWoqRjLm695zO4fGomEr2iH2jGwc2v4alHnsTSHU0I5M/ARdd8Cp+8bCxSo6SeJD6bKwrOfc/hz89sR2nGQnz50+cix+sXcYkkNEj8/f5irH3uZWzCVFx/4XjExcYjPikO0eyhqjE5itSry1+H0u0rsWSrF3nnfgQXFNrhsLGMer1RNibLANul49ZWvgMrX34Gu5Iux+0fnmJ+2O5kitRGUdq+CEs2l6Ck0S9pMQmJQDorroQcjD//o7iwkKLCzs7wMfemye/R9s/23lG1H6ue/ze2J12JL394KmJVUN5xnKHfQ5EebmcdDuxtR9SEa/GpO+7G3XfdjTtv/zhm+Nbi/p99C49tlp590JjdCEP3PASXZwee/sZn8Pu/rcPeJrd4Dn2HI4b0/O3l2PXmq1j0xFLs2ic3XXUrfObukOsSr6Rtzd9x589+hd/8axX2drgQmwp0l63AU/f+Gj+/659YWeMQIz3AcIJdvIamndj0+H34/vf+iKeW7kN7UhoSo+qxY9m/cd8d/4s/vlSKynY7+NP3R6Fh8aOnaxdefeIRLN+8Bdt3VqK+S7wjGqQoPw6ufxJ//du/8HLXWFz6qZtwWcZBLP/9L/CPZbVo6hIDZXcgyl6G5Ytexe5yG0aOn4506aFG/Jfx5aJtvjZ0Vu/BrvI2pI6fjxEjC5CfnYw4FZMBkLoN+dDdUoVD5YdR32HttsHZtg2vPvYYXtp4EDV+MfBWm2AZS30a433SyDlyfqCjEbUVnfCMmIZzrr8W114j2wfPxdyEarz50qN4en0tuv2hY7ylwWGcgKt1G17516OS33JU+yS/1rk8LJ6X47gbQnmnc4oFRWDDcCQga/R0nLVwAc5ZeA4uuf5GXH/TpRjfvRr/WrcNPjFUb6mtnwiJ025rweGtG1F8sAntPv7ddyxC2KOcqN64GC8tX4mN7S6kcNzf3Mm8iSFeUR02LHlKPJNyxM/9JL74nZ/iF7/4JX70jU/hAznVWL3kafx7RRG84j31DlccxeF0oO7AFixf9iy2dMZj1s0/wl0//THu/N878ZMbJsNVswEPP/UStlY2wOdw8HIN7OUFOttRvPgJ/HNLI7pF9KI8fTesiJS9cx92SX6LK9Jx7jVfw203X4+PfPxqTI3ZgZc3bUNjZw+colB1q/6Dl8vtSJ57Ea6elQx34OR6oMNDMhUMIOjtgqSK2NgYM7Til7S0VzoA0pv3OpKRM/UK3PSxa3DeqKNt2uZrQe2hClQ3daInGOHhSbmPbfZoJGbkomDMOIwbU4ixU+dg4pxzMRbSidq9H/W+AALDFAGGsvlbUF1xCNXNHZLfiOZWOUOcekExiBcS8MLbI5893fC545E+ajxGp9lQ0Vjd6z4fQXo54qZHRUUds4nXeywh/rb8sWHMdsQF4e/We8QNj0VMlAfRMbGIjZNemuzziLFkkjY75xX6nS+Gd9ii44gSo74Rbzy+DLvrEzBm+jRk+XxhRleMYqAJlVXV6PKnYOL883H2gtmYOmUGLjz/fFx6Vj662qtx4FCNeGkcADgW3pvNLTWoajiEqJxROOuSazFr6hRMnz0fF39wHiYli9E/dFB6qR1Hb2SbXGOgDR3Fr+OZp1fAP24BpnpiEC25Mt4Fg3U3ornWiej4yZg9IxfJUYlIKpiPqZPtaOlsMnMqodbteOHpfejOnosFF05FTpQX0gE9OSQvTqkjj0fKvG+LEq/jyDyOVILpObvdcLtkvzlF6lX+don6Ddg4RaUdLreZrD2uSUh98ly3tIGj54qwOyR8WB48HomfBtK6nhDF3wl3vzDOcOMoYexOl8TfO+/ldPeG8Rxpb7JP8nUkDmlLzOOxnmMYVl6l02A/khHJrZSZi3GznPr2GViWbvFYGaEtGvHZ4zFt+iSMSpG8Sz6dEpeT1yXlaOL1SDwul1nUEBa7/CfHj1yj5FHCs/8zvKqVNsQJ8xAn+X3SAXAhJl3a5egMoKlKvCI/QlIGUZ7edI+lt4xdkkfWj5PXJ3lwcy5Qrtct951bru/Y8wbKLz2tvsPhSLvorZOjYdnWjvXKWFa95WPal9Sn2zpHbISpi76QylvD8WOh77uZPI8orOTKDXh6aTmCo2Zg4byxyHYF5N7oQXPpBqx9ZjPaJl2HG+fmyE3KipcbQyq3rWQJFj/7CB5btBqrVi7H1v01cGRNRW689GRNy5dwUbXY+eSTePapF/Dy6tVYvXw5lu8sQ5U7C1Oy4+HvbsX+ZX/Av19YjmWr9qKsvQMVB3Zi48FqtHkyMFHC9DSXYP3TD+LRF+XcFSuxcuVqFHenISM1CQmcRxj0LmNDd8CDCmz89334y9JWZJx1Di7ID2DP5mo4pp+Hq84fg0QxWgj40Lp7OZZuqkFo9GzMnT4GIxOCaCtdh6WLl2JNVSoWfvgWfGhCohi58JtfEE8j1LQPJdu2YFNZDDKmXYAFUxIQ5WtA8brFeOH1PSIYl+K6S87CmPQoSUtOcfnQUbEWL//lT3j0UBau/vR5SFi9FcUd+Zh500JMy09GXFspti3dgdKubEz+0NkYnxhAT1cD9ix/AptcC3Ht/Gx0LX8Aj+0ZgZkfvByXTE+D66Qmxu1ys9oQ7KnH/tXLsFF6r0X792P//hIUN4SQlJSAhGiH2GgnOuvLUbx5FTbsrRDh7JQ22IOW6gNoRDriY8UouI5OMHMYJNjRgJqirdhY1Ap3fhpixJj2GgFpEy1l2L19F/Y3BeFJTEKsS/IR7EGwajteX7MVe/cxD/tRXFKPnthYxCVEwxWiIfKhs/EAti5fj219YUpK2+DITUWcGDmHpG9ztqOmZAf2lbShNeBAy56lWLujDAeaXchPT4AnuhkHNmzGls07sLt4P/YVFeFQoxfB6EwkRfUrOea5oRjbt0u77HAgWvIaYxO5t4fQ014j5bEZuyr9SMrqbRNcQutqK0fR9mIUt4YQn+5A58Ed2LS9DK3S3pPcLTiwbhW2SjkXH2pCR08XWmsO4XBtO3rcaUgKNqBM8tQYMxpzc1qxYc1m7NxThCLZV97mls5WHJKibeA0XLj57YVC4EBPxXbsLu2EI380CgszkSCdjqBchyvQLb2eQ9hcGkLmWePgOrAB24uaEIiORXycu0+05XodfnS3l2P3uh0oaQmitWiL5GEf9lc0Sn670Vrbl19XKlLtLSjbtxv1MWMwJ7sVW9dvwfZde1G0b5/kVzqHsXFIlPxatoCdEHo7pRtWY+OOvdhbJHUo5V9U65ew8UiJd0uHjcXuRU9HOXat34N6ZxbctZuxcct2Uxb795WhSYTaqot+Nab0g52VgThNgnIItjFzceF5hciOcsHfsR+b3ngKS7al46KbrsecEXFmOMbm9KF+zxo8/8TDeHnDblS129B5aA9KdsiN2pyGUaNGIz2GDciJ7rKn8Ny/N2DDvlo0dbeguXo/dm7bhI3SsCdNmoS0KB8qtj6NZVsP42BJDTpsUQgFOtHqSEDmqDGYklCFlS89gocXrUV9Sw+aGurRULoGW9qnYsaEfOSlOKU31ncd/eAN7nR0o3bt33DPn5ajvPBK3HLjbBQ0bMZLq+vgmUFBGYsEGlZppEnSoH1tB6WRH0ZTfS3qy7fi9Vdexxu7vJhw8Sdw2zULMSKRt8axzZiGNEZuzCiHB40VB1FUUoTW7ibs37QcLzy3CgcTZ+K6m2/Ch6blIoH1K+Xiby3Cmuf+ifufLEfmjd/GZy+xofixldjZlo9ZN4ug5ImghOSG3boKW0obEBo1F7Pyg2ja9wqe/892+Kdcj4vS9+HJZ9fBteBGXH3RDIzk/JsYFdPZO+HCBjEeoW50NJZi84ZNWLu+GF65Qbu6OtHRcQi799Sgu8eFRDHC0SIYXvFQK0t2o7SuHS3tPtjEg7QHu+BMGY2sZPGsjhEUaTtN5di/chFe2NSDnPOmIFMyRYPPtuau2YLXX12OLW3xyBk7FjmOdnQc2oXNa9ZgbbWobU8nurs6cGhnOQJ5WcjIy0BSoF28tT3YsH4TNu9oQNAhgtzejrJtO1DviEVCppQXPRFnLYrWvoHVK0tQE3Cho7YM9Z1ioFzpmDASqN63DitWybEmEcWQF53SHqtbRKiTp2Bcaj8DxfbTtgPLXl2JLXVRSCsYjbxYCeHwoq1uF5b9ZxFWl/mRPX0C0sXTcDpc6C5egdeW70CZPQvTx7tRv/k1LFp+AP7cORib2oGq3btQXt+IuuYu+MUTsAV64LPFICE9D+n2JpQXbUeFiJerux7lNc1obZeyqNyNnWVN6HanIzs9BdHO3snxYxlcUOgRBr0dqNm7Gdsb4zFh1ljE7Hoezy8/BG+G3EM5qYjmhLt0HOBrQfXupXj5lSK0ZI9AfHM5quvrUdfUjYDE35vfaMSl5iLL3YayPZtxqEM8QvGmD9U0okW88J7KXdh+sBk9nnRkpiWb/Nrgk3urHDu2bMaadUXo8HrR1d0t9VwhwlKJ5lYbklISEBsXLTamCx1N2/Dav5aiqNMtjnqFpN+Cts5uVEv5HKztAZKlXaRLR6NXrZRBOKOC8uyyvai1eZASFUB7dTk2vvYiFi3ZivYPfRff/+h4xJhWbIO7qwiP3fU/+OeePJzz5V/j99/8OK658mKMDhbhX/9+EOVJl2HBpHjjyja+uRT1U2/DR7/yeXz+pmtwzfWXYr6nDJuefQ7rE87F5bPyMOqsq3HllYXofvpVxF1yJ27/6bfxlSvnGQNavOpR/P2+RWi49k/4248+h49ef5UYz1HS6PIwOjdRREC8g4HalPTKbGIgOyqW4cFf/BGvdZ+Nqz8j+ZjlxOG1q/Da+vojgiIaIWFtiEnJQKK3DFuXrcTSZcuwZM0qrN9aA1/aPHzwc5/AFRPi4RmoVyQZsEcnIk4Mur92G1a//iqWLFuNlas3Yt/hEPIvvhW3XXkWRqdL5YrHFPLWY9erj+Kfj6zAwbEfxx3fuh7jg3ux7l8rsKN9BGZTUHLiEeOOhyNYifISMaIiyN62auxavgSb6ibhqmvORXDlo3gtdB4uv7AQmd0l2LG9CAcqpecbdCEmMRauISSFw0uh1oPYs1Y8qDfbkXPudbj1mgsxe/ZMTJ+WhRgxYqvXlqAlPhs52SlITk7HiHGFGBldJz3FVuRf9lXc9MFZmJQtxsQuXlHoaJ/Z8lDqy8SDaE/BhIWTkMXevmk+Iiyth7C3pAptcSMwbsJoZHaVS8/9NTxWlIzLPvtZXLVgBmbPmIFcjw+xGclITEpFVONerF/yOlYUx2CKeIo3f2geZsyYjozQZqx/bT9aUvOQnZmKZFcbqkolvj1l6ElMx7gLPoZrLpiGGaMSYPNuw6K/rkJd/gdwxfVX4AMLZmHmmHSkxcfCH5shnvXx5WVP8YjYlaJChC5KjP6Y7DjYpZfdWlOETVsbJEA37AXzMCrJiWh3N4o2rsXe9gSMnjoXM9O8qKs4gP2VQaSOOwsTMhOQN2UmZo3y4+CeBsTNuBSXXXMZLpiSj9wkF9qb6lC5ez32H+5Affx0XPXRy3Hu3Nk4a4QLDfvEo6hxIiZjNMak2sAV5MdyrKA4R47BuMJs6SzJEfG+G8v3YO3GXejOnoG5k3JRmOjHgX0lqHVmIDMjC5nSdkMi+j0N0plYthbFrsm45Kp5mCllPL0giIM7ahA/+zJc+mHJ79QRyE10oqO1EZU710p+2yW/U3HptZfignmzMXuUB/V712F7rQcx6QUYnSYdjE4RnC0v4ck3JJ7pl+Kmay7BAgk7Y9YopLRIx1VE5lAoAbmFI5Bk70JXZxX2rj+AiuZ6uMdfhg9fdiHOmTsLhfENOCjeSnl3DFLHS9uxBSK/AOU9xGCCchqGDDnmXYddSx7Eb//7a/jq7V/CT+97DeWBC3DZzBxxdduNMWDvumfdC3hhby4mXHITblqYC5uvB/7oLIy96KP43NkOrFz8Ioq9Pvj9XmRd9h3c8sFC5HnlxtolLvGeRtRHj0T2lCDK6ivhCwbM8EkAXeiR3obf14XOdj8C0oPxhdrh7WqBuzEOM+IS0drpQ49oqT/5A/joFRNQkO1BoP8yXAONWwjdDUV4+ff34pFdqZh7zS24fu5oJNP49dm+3hUq0rN0yg5/M8pfvBc/+91z2OScgvNv/SK+/s0v4XMfmYas9tfxj1/9Bv/eKq4+x/GP2k6DzWlH4PAqLH34d7jn0d3wTbsZn7xdyvArt+KaGU4cfOZe3P1v3mABOOx+HF71JJ74l6Rjn4tbP3cLFqb7jaD1RibekoO9XUgZRGPMwltw260fwYzWN/CPe/+ERYfH4JIf3I4rEl/FGxucWHD2DMTuWoT7//vr+PrtX8ZXvvp9/Oj+Z7C6xitR9cvoEcSoO4Ji7CpQVNqN7AUfxmc+kI+Q1Fd3Vw+8/jzM+dACzCpoR/m+QzhQJT1MPp/j5bFeQQ1K/fp6pI789EwGS+fE8LLZQWrvDsITn4aEUKv8LfHKvpz5Z2NSXh5S4UXFgYM4cBjIm3Y2zp8Sgx62D38Aoy/5ACZn9+DQ1kOoq+4yEdpCfnRH5SIlfzLOzetBT49sXj/Q3IkuewySEkXU7WxL4rkkjEHepBk4O2+AjoLsCQRGID8nHQnBOtTVVqPZKR2Y5la0HqhDY0ahCEkn6iVdv1/SDZagsqYFjuhcZGSlSgUyxvBYg/BLGfokL1zIEJTy9nb75W8pSy7/ZnqIQnzGVFx2wxzxWOTe6OqGN2cKCkfkIbatEnU1FZL3/rNSx2ITI9vd2oS6qkpUV9eK17MNO1a8jgOuMTjrgtnIjHLDXyDGfGQ0ukr24VB5NYJyXXZ0or21EgcaHYgfPQajWDlyw7GuA5LfgF/KrJv1LpvxDDjf5xHRn4ZLr5uDLI/4Id1yTTlTMWZkHmLaDkt+q+T+sKG9RTpR26uQMOMyfPwD4iE55Y6Xa+vsysK0Cxbi7Cl2NJcdwM5Sv7RNtieJ3xGNxImX4br5WeLZ+9ApcaePH4dRhbHoqatHZZm0y6GLQhmE0yAoQWkoI3Hubb/BP99YiVWr1mLNmw/j/27wYvE3PoYb7lmChs4AnPYgNmxfisbRqRgrPaeoqhIUyc1eeqAUVdXNCPbkISSiUSE3SFAavrflMA4f2opXH/o57vjix3DLLTfhy//9Wzy1RhpobSOqJOXeWy78xiN8QCsRCXmTkZzfhJd/9z/4x5r9KD54CLUtndLOpV/S/5Q+zLMsnTXY9tBduPf5MiRfcCOunp2I2PaDOFhWjbrWbgTF0/C1NaCqshKVTc3orl6CP/15EdY1TsJ13/4f/M8Pv4kvffYb+N53votvXzsJtq0iKv95EaU9XNIrxqMvLWn1cDlqsOGN5/Cfp7bAN/56fP3nd+MHX/wivvKlb+KOOz+Py9PbsOmhh/FycSXKdr2A5/7xMF4qS8e8q67G1YXtOFR2CIerG9HGB9Lkpm6tqcShinq0dHWhG0kYcc6t+OE/XsJr4p0885cf4uPjWrHkmdfQef4VWBBYisf+9gaK8z6Lnz38bzzw1clwbnsUv3tgGRo4Zm0J1TFworsSTc3laOpMRv7IkWLo/CIMfQVK4xGXj5y0ZASaKtBcXw37CYzYW4UP/blj4pCdlQxX21b867F1qKqqk7y1o1MEi8u07RCxqK9Auy0DGdlZ8NaIMW9sNFtdjVyN24bu7mYxzN0So5hlMXZRUdGIS0jq7cnLZYVEqEPpWcgXL7Fq6et4cyvnCJrR1toBsVN94/zHw6fB8/JzkB3nFmPbihYJ19LajBIRkeyxZ2FMihMVYrA7RCiC9c1o7XbBmRSNhHie3BvH8BFx9kTBlZOPQq6oNPUh+wIJiImJQnSoEx2d3Wg6pv31RzpJzlaUb1yK5x/8G/72jwfx8DMrsMt2Fq741PWYnyGdFYkz6EtCwegspPnqUdHQIN6B5LurEa2Hy9DozMX02aOlgzlwnR+9LInH45H85mGU5NUpG/8hIPea5DdG8kvRaEUzujr2obIxFrkjRslpnFfpjcUWko5ndA7S0tLh6RbRlvT5Sh+2QafThdyRBfK3S8KzUyNRx8YgOjoajm4pi/YWad+nwTS+BzltpcZeu90Zh1jpxbhjRmLChTfjm7fMRmDx63iuVHo+oRo0NshdumkR/nHnV3HDTR/DJz7xCdzysZtw61fvwO+X1yExKRZRkmOnNJYND30FX7rlFvyheDKu/X+v4PWXF+E/f/gffGKO1zS+vnY1AGLUetzInHQ9/usXv8ZtszbhyTs+jk/edAO++odV2FXZMcjkJJdNdqK77U0se3w7GqXhlb9yN775qWvxwUsvxaU3fB0/enwT6m31KH/2p7jtxltx6/1ifLfuxvZGH1qmnI25Y9OQFy2GiRPBOZnInT0VM1pa0bVxF7bWBeEN91LE0NpbDqKSPfm2XGROm4G5E7g6SY45ohA1ag6mzYhFYtdGlO7ejyWvrMKmkoNiIPfg9ftux1WXfAiXX34trr/l13imuQ1djuV46Osfw5W33o1HNh5Ct9zUNB98ktoV5YFTPKnqpY/i+boLcPEHp6K9aiW2pxfgnMvPwQUzZ2HuOZfjqonZqFy1Fds75MaVbBxXRlLHts4ueNs70GGME6+171gffbc7j5hvJw3jHc7NTs8nJgtZ867CF66bjPSatXj04b/jD79/HMuKD6ORybdJB8IbQGN9Mba8/Bc8SEP5t77tweewRdqjTQTEbXq2tEUiKGJ04hOTzHdzNVJnodB4XHjrR3HR7Bg0rn4Rj917D/72zDJsOOQ//oFTC4p8fi7Ss+WSqutQWV6PtrYKVDenYPzkbEwYOxJuDmuJt1NeUo4GfwJSszKQEyfG9i0WXW9+jz+ZnYMj7W5QguJJJGH0OVfg5ttvx+1f/gq+9vXP41M3n49xXPwg8fbedwEkixeSldaDlsP1qKkKwdvagmq5vmD6KBSmijBJ9Z3wEkyAATJl7WKG2TGgV8fvFPZ+1xb+V+/3vpNFQSgiJrwViFHwM/wk5aQ5bYJiXt0gNxd7ZhxOssclIqMgGxPpntPrCGYhPc0J26wr8Mkf/R7/fuQRPPTww3jonw/h4UcexWPPPIL/PPQpXBDjQPSGB/GbR4NIuuxu/O93b8Pls6RHlJmBpMQ4eAbo/AzcRhxILZyHG//naTz2zwfx5y9fgMPP/Tc++ssn8WZZC1yD9aKcHrgLx2L8lIkYLzd93gjpZeblIjc/A2mJMZD+GNzJ6cjLzkSWW0RBurIdYn0DNLZ9jdY0ZN7EFFm5UblYoNvLm5EBeHP33eAcBvLRgEg1mbDmZP5fwlHgGK4dPT0B+N2ZyBw1CZOnjEPhqDxk5eUgR3rAOTkZSBCPwo5YpGZmIy8lBvFO6+ZhuctnsAOtDevw7HMlKLzoUszO9qGtqhXt0WlIERGPFQvgjk1EanIcvN1NaGjslQOTx3DE0oViouGJj0Mc61v+Pi4MJ2kl3RAPmIPDv4N5nsftRkpigvl+7KnMU++/Y/CkIGXMJbjtS5/Dpz9zDebmtGDXU0/itTdLUR2VJB0cJ1LSxmDmpZ/GZz7zaXzqU5/q2z6Dz3/xy7j9o+dgbHasdDJYUL0c751xGWwGZlz+UXz8c1/EbR+ai9zWddLJeRav7W4fZBm6lL0tGYnx8fB11aJm+3a0VjajKXkkxuRIp2viaBTYpGffUIO9xfXwxWUhU3rb8XL/DL/ETkRvTMONz3SE3B5ESZ7jYmPN09LRUn4O1mdfGNZvIGUWJo7OhqfzsAhKCVra6lBWD6SOLEQ62yzrLgwWz3FFSvqFM1i7eMzjhiMpAYlMX8rF3Dd9h4lpESYO2S/3z9GTw78dxewbsK6U4XLaBIVV3Wsoeys31NOD9vpGHGANyn+hkAO5ORMQs88nvX8PYgrHYHzhaIwZU4hC+RxdkIecPC7pk+BdzWhsdyIqOQ/Z6eIGO9lLFA+nYgf2re5rEeENo6+lGENg/pPwtKQ2N2JTClAwfhqmfPh2/PLG0XDXVKK4qQOdEvbYwhEDEPAgOnEhbr3rN/jtfffj/t/fjz/c90f88Q9/wp9//X189YMTpXEnIev8z+POX9+Fu247G0kT8zHN6UDi9g3YVNyEyp4QHI4Q/NW1qNq6C9ulB+zKK8CIDLlZTZunkZcMswebkik3YTqyHYdRv3MbNhb1wM8LCHrRU74JO7eJEATHIEPE9OwbPotv3vUnPHDffbj/vj/gj/c/gAf+eC/uuevjuDguBp7AbFz+vf/D/b/6Eq6alguPr3fS0S5i0dNUhx3PPYu1OVfgmvMKkBUdh5hYyQ8C6BFB80ueAj1daBfhcjFPmb1CYe7VY5A82+MRHZ0kwtqKivISMy7fW+9S3NxaD+FwfbPEky+GPPPIEMVwYVycpwkGW9DUyDz0xS1ld7iqDo1Nrb1DGwYaOjnojEZiSirS0wtxzkcWYEx8txjvFrR0JyE+PgG2YDta27uRmp6OtLS0vi0VqSnJSE6QTkLfc0tH6J9nlkXQZkSX6eTNugTzzpqB3GAFquqaey/8OFjPichMT0NWXEC8kAPY29CBhPzRyBCv0e7JQEZiGw6XFuHQoSBSsqTDlREnnY+jwnYcki2TM1Mg5r8I02ugJeeSd2vj32HI8SDcGD1SvGp7D2p2rcPm4nIcdo7G9Dnp4LTikRP42Zth/s/K9jCRdGzSefGkIdbdjcNlB+ALBEwkvTZG2l37YdTW1cMbnYHMnDyTX+XUcqzNPGWIcZaefVS0GDG7Cy7peVWsfQq/+9tKNC9YiEtH8JmOALI++EFcFLMLK//8T/xjdTl8pnnJJg2j7s0n8MhaL7qCkuXsNIx17kfV/gOob5FGLQakrXgdXn38AbzWKt1vOcc0TDMckSU9VCe21O9FVWu7GDg+RFWL0oNr8PyiYgnT26qD4k14a0vRHe1CgvSC+SDgMTcK/5L47M4EpI8sMEuYR1vbaBG9kTnISoyW3podrvgMjMgfgRFZ6fCMvBQ3XDcV+YFNeOy3P8Uv/u9+PPj3P+JXd/8GP//rRrRlTMRF116JWXESd8smPHHXN/DJz/wAf1xSgkPeMTjrnItw6cJcNG94Cvf95Af41Z//jgf/9Cv89M4/48XiViRdcC0+OLUAE3PEMI0oPJon2QoLR2FkXhoSxCDaQrFIyh6BUeIVpsR4enuJdifsvlo07XgVT73gxgU3XYKxGdFy08dh0oTZyN2/GUsWb8CG4hLs2vQaXttzCIXnzsN8D8fhTYn0g8MiscgpGIsZE6NQ/eZL+Oeycilz66G1CmxcvAabGzMxZcoYTMmyD7L4YRBozEQc3QUZSGmrxJbFm9FgXsbphrNyHdbvOoD9DSGz8EBUB77GalRsXoNtbS44nHzIzYOEThFhnw3BKLsEiUNB3iiMSWrCrg1v4NWd7XBKOGsrfeMN7KitQQuHH3szEPZ/Iq1MeuS2xg1YsbkGTe2SFxFoh6dHPJpO9LS74YnmmuuBrzEkbTk5Jws5qTYRuCrUhBIwYkyGaUMOZGDcqGi0lu1HjT8ZmdkpyEgw/YyBkSRCKeI5OHvQWNmE9rYA7FIufLBvyBLmQXMPRI6QGHaneMmZqUG0F+/FptIAonJHY1IcOxdMsjc95jfB3YMGyW+b5NdhXnZq7tyhMadLLEGPCPgozJ2Xifbti/HYsmJ0St2yrbndNdjxxiq8WRqF3ImTsaBA2oM1VhjZy1XCOPXLhstX49FXl2HFutXYsuwVvPD0k3js4X9i8ZZqJF38PXzj1nMwIzvGCIA9NhOjJ+XCVrUSy5/8J/71wqt45rF/4z/PLcfqxgzMu2gmCuLl1o7PwSRXOV5Z8hqefvopLH7+cawo8iMmbwZiezaiIvYcXHPJZKSyZ4lE5PlK8MyrS/DSM09i8e4GdKTGY3TDavz9W7/GI8tfxhNPPIYnnnkaT/TMxe23Xo/LJuchig/mDdjw2JDDe2iyUWi6DmHvqqV4btlhYNq5+PBF48DVonZnPNLHjMEI6RU3HNiKzWtWYeXy9dh8oA2uCefipk9/AZ+8bBJyRGx9LTux6M8P4uFl1Ug562LMmUBRykJmXg4SbdXYt2UV1r6xBqvX78bBrmSM/+An8aXPXovzxqciSgTZvK4kLF+hUA+6Jc5lf3sF69tyMePG8zA9Lx5RZkWV9PSdXtTuXYLn/vE4SiZ+EV/88DikuuQKxaDFZOYhua0Ue9e/hGdefglv7GhH1KRLcNtnL8Ok2CFe1idl4YyKR3JWkhiLemx/dS32luzGxs2bsGnTZuzpLMDssxdiwZRMxLkpQWI8xUNoqd6L9dvqEDfxfEzOdsDFtyj3RXkMdjfc0bFIc9Ri89ptKDm4B9s2b8bGQyGMSOQ7p9rQEjcCYycWIq2zAgc2vooX39yFoq0bsXGjbBtK4R93LuaeNQmjE0ToYpLEG4mCvb0M61dtRtGeLdjAcLLt7UwTYc5HdoKIrKMZh3fvwoFKN5InzMCYlN4y5GySrXk7XnvlTWzeshnbtm+W80XEJFz6xPNw8exs84DlYDhjnOaZluK91QhlT8eCuaOQaIYy7UhwVWPzumIcdozE7BljMSY9xjyg5wi2oq5sF7Yd6EHSuHmYmCHtjzeQKxGu+n3YX1yEneLR7qtslQ6SePH2epTs2o5Kz1icPTFTrqXXaPMtwY3FG7DnYBsc2eMwaXw63Ga1QTi9vf2eso3YsrcVtvxCjBmbjUT/UMtqpebcCXB31aGuohjl/kyMm3UhZmSG3VNUFsmvRzp6RcX7sGuX5PdwK7o8ucjzNGP/9k047B6P+ZMyj7xUlgLZsG8tdpe1w5U1FhPHZSLKJp2EjFSkJLRg34qN2L13BzZJPWzesAZbGzIxdtZCXDR7BJL4IC3kfmgrw4410skpnC+dMA88DrYzsVOuJpRt24n91S4kj5mIKXKMb69QBmawZcOn9m3DNBa1O7Fk426UVInrLxXERsjXN8RnjMbM86+SRuZHj09cVQNfXBhA7c5V2LBBbt5WBxw26fW6E5E6dh4uXzgKsWKw2LOOatyFV1ZtlZumyfSIUkfPwZRJhQhVLMU+zMIF80YhQTwXvsrC07gbr67ehv0V9fCnj8f0uZMx21WJ1Ys2osRcvTQqmwv2iRfiY3NHIjFKvBW5c3tvu2EgN7/DV4dDO7fjzR1NIhSzceGckYjr7Y7BJl3mQG2xNPYilJTXoUWK2ZmQgpwx4zBx7FjkSc/Tz7mlrirsXLsJu2qdKJg9H1MK0pDokZvJ24Gmw3uwfXcJqqrb0W2PRkJmDgrGTZUwSYiSm2KgkRAu8/R1lWH7ok3Y35mNSVfMwriMOERJYGMMHT60VhVj79b9CE68FPPyXb09SJNnG7yHdouB3IbdNd2wJYzE+MlTMX1yFjxcKjskUh4Ov6Rdjb0bDvROgBts8GRNwKSR6VLGod4Jaw5PBLrQ2SiCXNqKuIJZGJ3G4T+pkyPnhSPGE34RjgrzwsuOvqG7oORvehbQ3tCIencGRhbki9FrREP5Puyr7Q4zZNHIGj8ZI9Pj4AlxZZ14IxCvpaYMu/fXojssTU/2ZEzOT0a8R3r59g4x4mWoaXIhsWCc1BkFm6Hkf52HsXfvYTR2eikvpgAdCbkYMWoUCpLtZunuYNgcAbRVV6C8rBGhVBHCwlS4g71CZe+pwu7dh9HkFMM4Kks8FBo5EZSQtIeachyo8iNx5GRJgwLEyJzw1+1DSUUtatu8poOWK97iiOhWVBwsRZNnBKYWpMD68TIKRdvhvSir6YE7Ix+j5Fpdpm30Q+4hb4203You2LPykD8iFbGmUzI4dmc0vPtex2vSAdrjmYMP33ApxkaH1QOR/AbqiuS+rEO95Ncm+c0ZOQaj4jpRcWAfGtwFmDwqxbwmxbRJ8TrbDu1BWZ3kN20ECkYkSX5N9hDy8Q0Dpajt9vUKnXSoXBnjMHZkNjLF+zfLp7mku6MapbvrYM+fioI08WQoKGJTHM52VBcfRFWLG4l5fMbFbZY0KwNz5n4PhW/MNe/fYaPoS8pYLREKX49UdO+uo3BYyQWXea8Oew+8ueQz6IeX6+z7QjFevteHN4eJVY6zh86nqR1icPqHtfJg0uX6fGmFbr5PSPLENIgtyGcIuJbf/HmS2CUZNlCJi/F4j5085dP9Ttm4wqUXSVfy6w/4joqB5MnFV30wCr/X/A5J7yGukHMe+3skku+gnOujARgivxRUp4dl0nfd/S6O71dycsUX37XW72VdfG25qQeTqKTnF5E4mVewMG3WUd+fhPXIejo2z1LHYtz43E7I7xvg4boBkHwfWx7iocl57NlzoUOAPWhpZ+yFH/t+KJabCJIYmKNZYDhpH1I5x4TkD1MZT49/9Ybh9Az3H6kzwuuUvBz3WzP9ww0CDaV5oah0Knp/76YPtgdzjdJOeD1HD/SWlzQUtoHwNLjfwXwyK8yD1Bl/y8bsk2++foVr2iXvIVMvx1TKMZh2QsPOjg/rr2//wPAVSl0oX/kyXl/fDMf0D+GWS/KB7uNudlOPvPYj+WWZ0cBzHknu48Hz2+uRW7DeHX3vg+tFIjTXFF5uQl9dScFIufVvA7w/2T7kGt+aEXjfcOYERVGU9w8iaC4xzKHWDVj85HJs6xyFeddejguzHegZQrCUdxdn6PdQFEV5f9DrnfnqD6Jk/x5sWLITlZ2JKDhrMiaO8Aw57Ke8d1BBURTl7SN6wsHnzpLVWLLocby4zYfk+RfgonMmIL2rb15Dec+jQ16KokSQvgUCFmJe1Dd576FDXoqinHrCxUSkRMXk/YUKiqIokYMeyZGtb5/yvkEFRVEURYkIKiiKoihKRFBBURRFUSKCCoqiKIoSEVRQFEVRlIiggqIoiqJEBBUURVEUJSKooCiKoigRQQVFURRFiQgqKIqiKEpEUEFRFEVRIoIKiqIoihIRVFAURVGUiKCCoiiKokQEFRRFURQlIhwjKLa+n1oL+xFHRVEURRkWx/wEcCAQQDAYNJ/Wj+QQFRhFURTFIjY2tu/bsRwjKMQSEgqL9akoiqIoFh6Pp+/bsRwnKIqiKIryVtBJeUVRFCUiqKAoiqIoEUEFRVEURYkIKiiKoihKRFBBURRFUSKCCoqiKIoSEVRQFEVRlIiggqIoiqJEBBUURVEUJSKooCiKoigRQQVFURRFiQgqKIqiKEpEUEFRFEVRIoIKiqIoihIRVFAURVGUiKCCoiiKokQEFRRFURQlIqigKIqiKBFBBUVRFEWJCCooiqIoSkRQQVEURVEiggqKoiiKEhFUUBRFUZSIoIKiKIqiRAQVFEVRFCUiqKAoiqIoEUEFRVEURYkIKiiKoihKRFBBURRFUSKCCoqiKIoSEVRQFEVRlIiggqIoiqJEBBUURVEUJSKooCiKoigRQQVFURRFiQgqKIqiKEpEUEFRFEVRIoIKiqIoihIRVFAURVGUiKCCoiiKokQEFRRFURQlIqigKIqiKBFBBUVRFEWJCCooiqIoSkQ47YLi9/vR1dWFUChkNn63/g4Gg+a71+vtC60oiqK8WzjtglJaWoo1a9agra0NHR0dWLlyJVatWmWEprW1FatXr8b+/fuNuCiKoijvHk6roPT09KCpqQktLS1mo1fS2dlpNsJjFBX+7fP5zD5FURTl3YFNjHqo7/sphQJSXFyMAwcOIBAIICUlBW63G1VVVYiKikJ6ejra29uNqMTFxaGgoAAjR45EQkJCXwyKoijKO5nTIigUk507d6KystL8bbPZzEY4tOVwOMx3ZoUbvRMeHzVqFKZPn24E50TwvLq6Ouzdu9cI1tixY5GTkwO7fWgnjGGZr5KSErhcLkyaNAlJSUlH8qcoiqIMj1MqKJwX4QQ750127dqFrKwsjB8//sj8SLjRtrLBfRwa27dvH5qbmzFt2jTk5+cbY89tMHj+oUOHsGHDBjOxz3QoRvSChoLzOFu3bjV5jI+Px/z58423dCIhUhRFUY7llFlNGvjt27fjzTffNJPsFJeMjAxkZmYaYaHRjo2NPbJxmCs5Odkc51AXw3IIbM+ePSYOfp5oop5i5PF4TFyNjY1mPmYovaR3QtHiRi/I6XSqZ6IoivIWOaXd8O7u7iMT7BzWsoa2KioqjCexbt26I9v69evNvpqaGhOGHgLFgOfSYxnOqi+GoShQUChgjGuo8+g91dfXm7QSExPVK1EURXkbOH4s9H2PKOzp00hzHoOGm0NL9Exo7OltcIKeQ1gUAELx4VxGTEwM0tLSjKGvra3F6NGjMWPGDBPPUENehHM1DQ0NJg2G5dJkxkWvpb/nQbGiF1NWVmbyyfDMQ3Z2tvGYwsNbnkx1dbURKaZDoeNwmiWSxBIohmWavGbrHH7ntTIdpk3vicd4jfxOBsonYXh6awzLeSJ+8tqYL8YXngfCsIyboso88jr5N4WZ5cPjVl7CYTrsAHChBK+F+VGRVRRluJwyQSE00DS8NII0YhzO4rAWjRv3c35k3LhxyMvLQ3R0tDF2nMdgOH6nIU5NTTUGn4aWBm4oLEHhyjBuNIyMl+f3N7o0mOXl5cb4M33OuwwkKMzn4cOHzbAdBY/GnKLBdAgF0DLMNPJFRUVmLocGm+lzYzq8ZgoA88NwnLOhp8b93LiPcfF4uKgwfZYDBZjix7QtUaFQ0AMLzwP/ZnwcbqSg8O8dO3YYEWf6zA/j4zlcfBAOw/JaGZ7lxZV4luAriqKciFM6h0IjyIcYaQhp3CxDyWM0VDT0FBB6FJzD4HErDD9p4Gh0+bAjJ+n594mw4uYcDY0mjSeFoj/0GLhE2RIfGm6eG45lgK05oMLCQsyZMwcTJkwwPX+KB8WC4kSYZ/bo6QnwPELBpIdF402h2b17t1k6zfR4bNasWcZzo0BwpVl4Xnm9jIfnUEQodlxowDwwL8wfhYJ5YJoWzAMFgXEdPHjQ5J3lwY1xEIqvlW8LhqNIsdwo6icScEVRlHBO6XgGvRFu/XvdNNzcaMDCt/7QYNI40uD39zAGg/Fa53C4i4aTwsG4LGjM6WHQK7GEJzx/FjSuNNY0rDTiFAAOvY0ZMwYzZ84059HgW0NWjIPXwXh5bMqUKWaFGoftJk+ebEST4kqh4PJkPmtD72jixIlmEQLjodBZwsa/mT7zO3XqVJMmwzMPPIdiRG+KcTKvhHngxjTo9fD4Oeecgw996ENGCHkuy5KeGdOyYJr8m/sp8twGKhNFUZTBOGWCQmNEQ3reeeeZT2vugNDgs3dMY8yhH/ai+Z2G0zJiDMtz2BO/4IILTC+f5w0H69zc3Fzznb3/8B48DSd7/BQK9sT7G07+zfNoXNnLpzDRI2H+mG9+8m/Ls+lvmK14rWEoxsewNNL0VHiMf1tQaPg3xYjpWZ4YRY9zGgxPIQiHZUGxpsfBPFA4w0WZcVA4+CwP42YeuDF9Xg+vg9dnQcFlekyfw4y8PkVRlJPhlHooNFAcqqLxtowkDRU9FhphPuzI1V3cOAxEo28t3yU0cjyXQ04UHBrrk8EynjS2nMMhzAd78/ybhrP/BLwFDS6NOcNu2rQJTz/9NJ566qkjG//mkJc1Oc68caOIcAivv9fDa6IIUGz6e2z8TuNv7eMn82nlmfENZOAZjiJlhbWGsJgPpsVj/a+P+eNQI8OwXChGhGJkvaWA5WKJoaIoynA5ZYJCI8f5k82bNxtRCB9yotfBYRh6HZwT4MbvCxcuNN4MjSsNHs/hHMi2bdtO+oWRPJ9GnD14DkFxopqCRZGwBI7DTIN5PTxOI0thsOZBrLxa+eWQE4e16CmEG23GGf53OIPt7w/zzzww/GDGnccoTiwnikl4+TAPFOeBhgopGDyPAkJBJBR4DrHRm+ExRVGUk+WUDnlZRtda8sveMA0le84UDj7NznF9bvzOfexR0zBaw0octjrrrLOMER/M+A8G88DhIqZHT4MG0/JWuIKpvxAMBNNkOM6bDLRxHiR8+CrSWMI6GBQ9CifLyhIPnkMGKy96IfTeWMYc9mL8/GRcnFNS70RRlLfCKRUUTkjT6FIwKBR8z9ayZcuwYsUK89p6rt6iF8ON37mPx5YvX27mVjg0wzkAbjSAJzL+/WF49rbppXBugMt+6akQ7hvKcPIYh6donNn7p7Gm0R5oG8gLeLswTqZPcaVXNZCoMG/0MCgc9KSsoUILS1j6w3DWyznppVBguRyZQkPxPBXXoyjKe59TJigWNE40UiNGjDDGnc85UCxo3DkvwqWy3GjorWPWyioKEQ3/yXom/eHQFod/GD8n6OlRcNhnKIGi0WU4ps1ht/AJbAsaYm7hk+GRhOVGYeMQHQ1+fzhMxXJjXim+/BxMRPrDa6MI8boYBz03lgnLXVEU5a1wygWF0Chabw7mMxcUFnou/JtGjRuHxji3QsPPMDzGITD2ot8uloCwp89hHn5nmoNhGWUadE7qc7iMz4LwmRgaXvbquVSXiwr6zw9FAit95pNDdsw302eaTJtDdxRH7uN3DgueSCD7w+vn9dH74nXxXF6reieKorxVToug0EhRRCgUNO7sSXPugV4L/+ZGweHf7CHTo6CRZLiTgYaYxr2/gaeXQWPJYTfOp9CQhhN+XngPn0NAFDU++0FR4eIALjLgU+h8oJCGnoIXnk/GQY8lPB6LgdKwsM4Ln1hn3HxRJjcuLOAT7HwzMvPAtzfTu+CwIsuSQmxhXQ/jGigtwjrhsBfrhdfGcqGX83a9QUVR3r+c0lev9Ie9YHoINH400jTENGA0bNZrPmgA2dumcTuZHjexDDnj6n8+46YRpbBw4jnccPIc9tSZL2t4jOdyY0/emm8gTIMeF+Ohl8W4rF49DTiP00gzHoaz8sA0rGXRjC/cQ+Ixlgvz2P9BSwosBZBiyDxb12jNL1FMmF44Vhiex7mnwUSCYejx0Ouid8h8qaAoivJWOW2/2BgOkww3tGSwv0+Woc5/q8eIdTycocK+1TQilb7FYGEIxYSeFudi5s6dazzFocIriqIMxRnpjoYbLX4f6u+TZajz3+oxYh0P3wZjsGNv9TxinRu+DcZwwlB0OGTGVWL0ijjkNVR4RVGUE6HjG+8jKCLWPA7FhKvsCFfSqZgoivJ2OSNDXsqZgXM4XNHFZ3L4WhyuEOOEP19cqXMniqK8XdSKvI+gF8IVXXy/GudNOBE/duxYFRNFUSKCeijvI1jVFBJ6KtZSbn2QUVGUSKGCoiiKokQEHetQFEVRIoIKiqIoihIRVFAURVGUiKCCoiiKokQEFRRFURQlIqigKIqiKBFBBUVRFEWJCCooiqIoSkRQQVEURVEiggqKoiiKEhFUUBRFUZSIoIKiKIqiRAQVFEVRFCUiqKAoiqIoEUEFRVEURYkIKiiKoihKRFBBURRFUSKCCoqiKIoSEVRQFEVRlIiggqIoiqJEBBUURVEUJSKooCiKoigRQQVFURRFiQgqKIqiKEpEUEFRFEVRIoIKiqIoihIRbCGh7/tpx+fzob29HYFAAPHx8XC73bDZbH1HTwyz3tnZia6uLrhcLsTFxcHhcPQdPTHBYBAdHR0mjuEWA/PHtJhffhKeyzwwLl7LUMTExCA2Nvak8qkoivJu4LQLCpPzer3GiNfU1KCsrAzd3d2YM2cOMjMzh2VoabR7enrQ3Nxszmc8PHfatGnGWA8XisCuXbuwd+9eIy4DiRnzG76f39PS0jBv3jwkJSWZv5mfffv2mbgYJ+l/HvH7/Zg4cSKmTJlixE9RFOW9xGkb8qI3QhFpaGhAUVER1q5di02bNqG+vn5Y3gENPoWHHs2hQ4fMuatXr0ZxcbHZ/1agwbfb7UbEnE6n+ey/WfsZLvyccLFg3rhZ18HjA8XHfVY8w4UiRPGkCDON4cB8hJ8XXr78zrrgsf4bw57Iw1IURRmM0+Kh0BAeOHDAGP/W1lZj7Jgs99Mws7c+d+7cIT2UlpYW4wHQG6GAWOfzk0NPBQUFmDp16kl5KDSglZWVqKur69tzPMwfwzEM8860JkyYgEmTJpkhOsL87NmzxwglSU9PR0JCgvkeDvObkZGB7OxsREVF9e0dHF4b88eNaeXm5iI1NfUYMRsI5reqqgq1tbUmncLCQjPUZh0rLy9HU1OTiYdpWJ9Mg3XANKzhPEVRlOFyWgSFPeLdu3eboSUaX84/0PDT2+AQ0YkEhVmkJ7Nx40bzyV5+SkqK6U23tbWZMKNGjTppQWG8NPLcBoKGluJHj2jnzp3Gw6IgzJo1y6RvGXZeAwWF1xcdHY3p06djxIgR5lj/4mXe+3s4g8FzKyoqzMZySU5OxujRowcVXQuKb2lpqckvhWTs2LFHyoWeCIcJGYYC4vF4TDqsI14H82aJniWYiqIow+G0DXnRaHHOgfMc55xzDsaPH3/SBotDRiNHjsTZZ59tBIg96ZMdQgqHRp3Gmb3xgTamR0PLnj7Fj2GzsrKM9xEuCNbwEgWO+WE4fvL8/nHy2HDEJBzGw3MoEJz47y9S4TC/FFnmh+cNBM9n2VM06L1QpMaNG2e+M3/0Xt7qMKKiKO9fToug0LCNGTPGiAAnpTkkxJ7xcA0rwyUmJmL27NmYOXOm6f3TqA9mMCMFBYJDXRQU5oECRiPcP116ODTkFBaGo1GOFDT+FCeKEfPDhQiDeVSEXoY1NDdUGVtxWuE4NMYypifDdKxhSUVRlOFyWgSFRo3DWhyyoeGiMTtZY8UeNYeZOFxGg87zT7XBY0+fcxH8ZPr0Tmh0+xtp5oNGnp8UE+saIwXTs4w+h6rofQx07dYQIOdJmM+hBHeo8mPe34onpSjK+5vTNuQVzmCG7J0E88ihH65KI/SIOLcwkJFmb94a7uJQERcfbN++HTt27DDLiQ8fPnxkOfFbhWLCPFBMKCoDeSmWd0IxoPAOJRoUi3DRY/4bGxtNHBQjpqcoinIynBFBeTfAORMOddFA0zugmNDDGqjXTmPMjcab53E12oYNG8y2efNmbN261UzaMz6Kz8nCeClknIOiCHDYa6B4mDYFh8NWnIxnngaDQ3QUTOapurraiB4XPNCT5OIInZBXFOVkUUEZBHomnD+h4aZx5sOMnG8YDBpgGmMafUt8aNitJcdcJUaPZbjP3fSHQsIVZPQ86EVQPMLjoWfE4S6GYx6GmsehKDJfXILN5dwHDx484kUxjXDPRVEUZbio5RgA9vIpKFxRZc3dhC8T7g89GC4U4HJhblxWzKfhuRCBk/gUJJ5LT4DGm17PyULxoEhYz6Fw2CvcS6GYcBUYRYxDY0NN3BOKI68pLy/PPN9i5ZNzRlxWzLgURVFOBhWUAeBQEOcT2OunkeWqNH4OBucc+GAlBYTLmnNycsz3GTNmmFe05OfnG2GiANBbYdxvFeaDXgQFhB4FhYbxUmD4PXzRwmDwGAWF10Ux4UZB5PMqFCx6P/SkOCymKIoyXFRQBoBzFNbzHhzGsryCweAxDhNx43frb2tynIaaQ2D8m94PhWCo+Y2hoBBQwCwRoSdiveDSGhIbLry+8LxbIkPxo6iooCiKcjKooPSDXgkFhZ800NZS5aEEZSh4HkWJngWNNoWAcb9VY01RoqBwmI35pDjRo6JAMZ9vd3UWvRvm01oGrSiKMlxUUMKgAbWWCluCwvmIt7viyfJawr2BtwPzQ1GhKHEIjZ6Klde3KnyE10/Bozi9nXgURXl/ooLSD/b6rQcHLSP9dmA8HD6yfiuFHga9i6FWjJ0Iy0vhJ+c6KH70Tpjf4WKJWzj0ShgfV4DRq3q7QqooyvuL94Wg0JDzZYl8ZT6X7g62ysqal2DPn8aUYmK9VHEwGDe9GorGQHBIimlbq7JoqC0xeKtQDCge1mtSOMzFeE8mTooGxYNvMuaSYb6BeP/+/cbjYXwc6ns7oqcoyvuP94Wg8OE9GsuSkhLzFDsNKI17OPQk6EVQGHiMXgSNND+HgufxeQ4+Gc9nTRg3h8y4/Javs+eDjVyGS2GhoebrWzhBP1zoNVhbOJaXQqNP4Rto7oTnUHCYx3C431oazfxyY34ptIyTS4lPJKSKoij9eV8ICkWCy2wpFBweouHsPylOo8sw1tCUJShDvQ/LgmLBV9zzCflt27aZJ+P5SYGhd8J46fFwaTGXEA934pyeCMWHBp4PK4bD4Soaf8bHByn7D0/xby5f5rnhosjrYXgub7aeP2E4a+kwP0/0YKSiKMpAnFFBoeGmkR+oFz0c2NPm+VYcg8H5BfbiaUw5VGT17MNh+hQaigOHg2iQh2P4afSt+JkfDhlRRDiUZHklNNp8yzJ/mGuw17cMBvPK8weay2EeKQ70JvrHyWN8hQq38GulUHAZNIWDYhO+0XsaKC5FUZThcNp/U54wSc47cAiK3gONPH+Pw3pX1XCgiPC1IRxuoiGn4aQHMJAIUGzoQTAsvQ72xCkC4TAMh6Y4/ENBoaFmfP3DDQSvgULCa6KIcDiJ18G8MD3mjc93KIqivJc5I4JiwaS5sUf8VnrF1vnkRHEMJ62Tia8/1nnWp4UVx8nEpSiK8m7kjAqKoiiK8t7hfTEpryiKopx6VFAURVGUiKCCoiiKokQEFRRFURQlIqigKIqiKBFBBUVRFEWJCCooiqIoSkRQQVEURVEiggqKoiiKEhHekYISlH/6AL+iKMq7izMuKCH55wv6EAgdfVtwY3cjGnsa5UgvwVAQ3qDXhFUURVHemZxxQaGQHO6sQFVXFfyh3h+9Kms/iP1t+9AT6DEi0uxtRllbmXotiqIo72DOvIciItHc04JdjbvQ7uv9GV0OeVFo7DY7mnqasK1hK+p76s0xRVEU5Z3JGRcUp92JUfGjzOvdy9rL0BPskUw5ZLOLqPhFbJrNcNfo+NH6CnjllGD9VPJb/aE3ZWBYrtzeLWX6bsvvO5Ez9vp6DmXZ5J/1nZ4ISXQnmu8UjyR3Etp8bWYOJcmTZETmZBjs0t7twjTUXFJ4mZ4IK+xQDBTPUOcNJ3z/MIPFx3DDyePbgT8FXV1djdraWvNTyfwly5P5zf/3G7ynhnP/MJz1Y3X8JdCYmJi+IyfPQPdxpO9hCgl/ZTUS+X0/c0YEpUW8joquCqR50pAZndW3t6/hSDuxssQhr4CIiUM+Twb+miMNxN69e82vJ1rx8ZO/1shfhwz/nfV3CxTWuu46HGgrMQsZwuEVZklZFsQVGENcImHqu+sHNccOmwO5sbkYKeEHM9ot3hZUdFYYgecQpMfhQXpUukmD5/eH3iTDc84rEPTDYXeYDsK4+PHwOHvLm95maVsparpqTJypnlSMiB1hOgwWzH95e7lZmDEydiRSolL6jkQWGo+qqirzK5v8tVAaEf56aP+fh1Z64U9k19fXmzLir5AO9euqNNAHDx5Ed3e3uef4y6UnC+9d1k9nZ+cx3iN/xpq/gMpfVY0UkcivcpqGvALBgDEOrb5W83eTrwlFzUXY27IXtV21Zh9hr4P/KCTcyMmKCWHD6+joQGNjo/n99MLCQiMiaWlpqKiowI4dO4wROVUw/ba2Nuzevdv8NDAbaySgAabHVtlVhaqualSbrerIZwsNuYTh4oZmb1PYsaMbDXllZ5WZk+oO9AwoJjTotd212N28G/tb96OmuwYN3Q041H4I+1v2oailCH4RDAsK3aGOcmxv2o59Ep7ptPhaRPzqUdFRAZ/8I76QDyUtxWZo02V3IcoRJWGrjPh1+jtNGEkabd42lHf0LsJwO9y9+08BrCMaSf7+Pg0Uf7dfxWRwaOCbm5vNvWVBD49Gn14ejX445n5+G54E7xvWEdNNSUkxnkN2drapI/6cNz0gpn8ysLPJ/HLj93Debn4Vsdc/Fvq+nzLaxQgWi9E43HnYGJI4Z5wYsy6zsqsr0I0YZ4zZwo0be7lVnZXGY4l2RJt9NFwN3gbTC3bIPxqbgRoADRENRUtLCyZOnIiRI0caYaGg8PffKTSxsbHGgJyqBsS09+/fb3q9J/Nb+UNhrl8Me0NPA+JccRiXMA4j4kYgKyYbOdHZyIzJlLKNN94DjXWaJx3ZsTnIjslBjmz0BjkvxXmqNPEMRsaNlHKP7Yv9KFxdt0+Eg+Wc4EpAYXxhb1hXDJqkXlpFLOJc8YiVc1l+FKci6RxQxDKjMjAmYSxyY3IlvUzxLlKR7Ek2eWKdUqCiXdGYkDhBjmegQ4SEdcq46M0E5N+BVhEYaR+jE0Ybz2Ug0YsElqCwN3oq28J7BbbhqKgoxMfHm0+WF708igk/2c7pPRDeg7wHaLQTExONaJ8sPJcCxnPz8/NNHfG+pYfE+5j1x/uLeRkujNMa2op0fpXT5KGYhhf0Ss+40ngl7EFPSZkqRidPeszV2NO8xwzPsFKJT8KaHm/jdhxsO2jO7d3vE89mL3Y27jTiZO0finBXmQ2PosIeTngvK9Lwep1Op0mHn5EQE4veeQUg2Z0kBrcQo8XYj4kfY4x4RlSmWeRA0c4SgRmTIPt5TLZC2bJln9PugNPmRLoYfhr6/lC0WsSTpEdJ75DDW+MTxxtBGcs0RAS6/N2m/OmlsE7ouTR7W+RYJiYlT0Kh5ItCx8UWFCOP3WM8D3oh9KA4bJbsThYBSUJaVJqZG+sSASEcXqvtqTXDd5xDO1ViQlhP4ZsyNDTkHGaiIbbKi207fBuIt1u2vH/DvXyKiDXPxfvYur+HA/NIEeGmdR55TrmHwsq2icFgD5UCQOFo97eb+ZO82DyzVJieSLd4KrGuWOOpcB/H0Dns4nL0Gj+O37PnvK1xmxGkOOnR0hi57cf3JNj42NvgeC/dZPao2HiYF+7jMbrQ3KxGxWPsrXLuhR4Me0YUI861hN8o7MFwGIvxNDU1mXB0yS3xoAvO43SpGYbxsjfE/ez1sCFzTNiKg+ezp8U0GMdQjZzGmEOEzb4mpIpRzhQBGWguYyB4LudeKOo05DT29HL6Q8Fq8jaaYSuXCM+ohKPhaNxZB8wDs0nR6gx0orS91MRPr4OiMhgc8mT9s94oZoyv2ddsPBd6IvHi9dDT4dwLBTDa2euZniwczmRdspy5cVycsH5YvqxXGiLWX/jQJ/ezjgaqA4bjOTzGeMJhb5nHLUNFWOdsZzyHebDSYR1bsG3wuJVXhuG+8N4x885j3M/vDGu1JcJjbD/85Ma2GJ6PcHhfMK8ME97R4f6Brs/KH9PlPrZ9ns9yYvzcb7Vf7mN8VljGw+vnfnqAPNe6Tiv9gfIYDs9hHTEuCoiVL8IyYN6YJuNnHhiOcfLTwgrHNJkXxsd88Jp5LuuJ5/B7eH553onyyzh43Ao3WFirfHmMeWMZcrPCs01YdfFu55QLCg0Gh2g4pBHvThCD1G2MCo0Le7vs+bJ3y7H97qCIioRjz7eup87MF3DIJSc2xwgKe68VnYdMQ0/2pJie7okEJScn54igsLFbY6d5eXmmp8P9jI8Ncs+ePThw4IBx4Q8dOmTioKBYwyFsbA0NDWZuhMcpPnSfKQ5sFGz0bDj79u1DWVmZaTBszDzOcylgTKu0tNQsGLDGnjkezEbI84e6yegNcDFDq7fVlEe0IwrekIiV7Gf+hhKXDn8Hitv2o8PXacSEQ2DWPFU4FBQKOkUjKCJBgWAdEJYr65IeBNOiF8E6qemskXqLMfVJ2GFgB4H5YjgrHYoP43XKPnof9Ibo6bCeOTnf7e8ycy4TkiYeEZyTwbpxWScsU960rEMaPdY9e9g0xDQiPE7jwrbAvy1jPtDQF/ezrjj/xvphe7JgmmwzrGMOx9ALZnysV+aD7crKA8Na8VttlPHyXOaVYdherIUBDGfFQwPHuBiW57Lt8pqYJ7ZJHqNhYxw8xjj6wzgYnnEyH9bCFBo17uecBNPldTBtlg3bKvPJYSCmwXbN/TS6LD/GxevlPuad18FjLGeex2OEnTRu3Mf80oAyj0O1d8Y5mKAwLeaH18D6YR0wLuY93DgzTd6rvBdJeH65j/nlOYwnPL9Ml/aDZTpQfnk/Mzzjs+qPYZke88N2YOWXcbIOaS9IeGeUcbPMGf69ICqnXFA4AVvSVizCIl6BiAB7pxzeYC+YPdPUqFTkxeSZnnOj7KPho5GikaGwsHfM8XhS2nHAHKPRo8E5kaDQaFg3MG8m3gysRI7HUmi4n7Bhbt682TSEefPmYcqUKSgoKDCVzcbIm4k3KePgPk4Mzpgxw0z0jxkzxpzPRsJGybkaHqdnxEY/adIknHXWWWY5Ko9TSNgAJ0yYgNmzZ5s4OIzAxkRDNVSjomdG4W0Tg9/ul5u7jWV7wEyaE/boByoPeg801IeljBlmVPxoJLiPGsX+MJ1eT7LNxGet0OJiCtYnBYeCxnrh0FijmQOJEbHqMJPy+1r3iddywMyt8HzWIUWFw3GcrG8wr9UJmc4GBSZe8sKVXFz9xU8OzXkDYuSlnbANhC/SGAzWnWXweLOPGjXK1DNXI9HA8WbmDc/2wJuXwza8kWmUOSHPehxqrosGg2FZR4zPgumyTTFNGj3WMUWCBoN1znwwD0yXWMaax9m2GH7s2LGmPTJexsV8ss3RIDFdtiO2PbYTtkumQ4NIEeAn2xLPt1Ze8foYb3+YLvPLe4PGkRvD87q4j6JKIbDKgX+zrTJd5p/hmB/Gzc4Ry4Kf3M+4xo8fb/JgpW0ZWJYN7wfOZbKsaWB5v1gCbN2H/QkXFKZjGXPrPqQQcgib8VhlZJUbYbqsd8bD8mHaDE8hYX5Z7swX80D655dlzethOkyP51j5ZbwUYF4r72He8wzLY7Q7jIM2g3mmPWL+eC3MC1eRsW0yP4ybaTLeocri3cIpl8RUEREaFU4m02DwKfjxieOMuNBL2VS/CXtb9hgjxt4sDRSHutjDPVq40luS4+yZ0xANB944vCG2b9+OlStX4o033kBJSYlpfLwhWeGEjZCNgzcFjQpvajYCftIYsBHRQDA+3my8KdhweD4bJs/njcVz2DgIb0aGJ/zkdXAfz+HNREPGeHkOGz9vFhqf8B7YgEhxRNmjzGR3TnSuEWca6y7p2XMeqlTExRvozUM49BQoRPzkufEDDHVZMK+JrkTxNtIlLY+ps7W1a7CiegW21G8RMWs1Q1IW9JBYJY0i9OwQcAFFlqRBT5OrtbhSrFY8mKCUAxcKcCEB657CREHkUBeXDbNuKXzZMdnYI+1hZe1KrKxZgTV1a3Go49Axq8oGgjctb1iWKcvSEmf+ze/cx/qh0WA98DqtOrJ4Ozczz7XipNFgXdJAWHlge6IBsdoBjQjD0MDRKHG/FcbKpwWvjW2WRp3hmA7j4MY2yfi5nxuNP+MZCCsNhqf4Mp+Exo5p8N7gPitu7ifcz3P7M1B5WfmzYP54Tcw/j/Ga2enid4oT0zkRzBvLhPcoN96PLB/eN5aIW8LG62J4wvvTEjtew3Dyy7hYJ1Z+ufFvfjI+xs17mOkwTgoDr9EKS9vAc5k/hieMn+2C7YHHWQcMa937xIr73c4pFxTOlXDCmIavvrsOB9sPiuGgqEwQwxVvPJHDHYeNMbGGOAYTjeGKCWElssLpHVx88cW45JJLcN5555n9GzduND1ZVjIFgYaIPRtWNBsuK5dixLBWQ2LD59+sdN4IXHq8bNkyvP7669i5c6fp4TEuK23S32DxRmae2BiLi4vNOWzwjJPpnAiPzYOJyRMxO3U2ZqXNwvyMs7Egc4Ex4Fy9xWW6TdLrD4fDSvQE28Tb4GQ968NaNTcY9CTGJY5HodQb5zX8wYAx6Bymoncjt47xGFhf/Md6MeckjMe8jHmYmz4PsySPCe4EEbtO4xkFQj4TlnFMT5mO87PON9uUpClmWTk7EXwuhnM3dfI9PzYfE5MmmQUE9HB5fChYb6wz3rT9jQfL1hL9cENq0b+e3g5Ml3lgvbKnavWcmYZVxzzGjflkWBoobswX88iwPG7BOGm0wjsc/M59vB4Op/D6mQ7Dhl97f6whLabHNs22x7S4n/cA97O9W3lgOszTUDCstYXDv3l9vK+sPPGTabEsmOfhCArLkCsm6d1zWJr3DT0Ieh2Mh5uVRnj90qgzDxRilhXpn8dwrPyyrQyUX5YHy4v5YTlRqCxvzILhmB7D9RcJhg0vC2LFzTyHh323ckoFhd4IDUGKO8VM2HKpaV1XrelxUkiinL1Po3KpaDg0PJGAFWdVIm8iuvJ0Y+mK0l21hIKfHD5YsmQJXn31VSxevNh8rlmzxrjmvKkYFxuUJSRsBOecc44Rq6lTp5r4h3Nz8JkYLmVmY2c69Jw49NHfyA0E82CGoBwe88keP70JLgeOcYjb7+8ww07hUKhZ5py7ojhQ2MMb9GBwZRZXiS3MXIiLsy/GBdkXYEryFCMcFCmmz43iQkGxhjOZJ+6nmKRFpZv0O/zt4h31Xh/rlse5+ILDb5xXqequMiKX4ckwQ20JjgTzQOOouFHiiWXBK54VvVm2p4GgIaAxHaoMec3chjIobxfGzTTYC+UcHduVZQTpBVsGw8orh5N4nHNyu3btMps1ZBeeT7Y/qw1asF0zDXokjJvncu6Oxm6oa2S75X1AY251nizjSEHhcbZNS1h4r1jG+K1glXs4A+0bCt5bHD3gkBqH9zhUZXk5Fswjy8QScMugWwJ6MgyUXwt+Z7mx/ga7hqGubahjp7Jtni5OqaDQI9nZtBNr69aaZ0amJU8To5ZgHmbb11JkjksxDktAGOLYcMMrfDas8Ipi46LAcB+PsffFhsgx0AULFhgv5txzzzXbhRdeiIsuusjMqTA8e4IUGM6LsGHTXWVvxhorHQ40DDQETGvhwoUmDs7fsAfGG+GtwKFCNlRTOv2KhZ4Fn3jnkBOX6p7IOwmHHg0NP0WIQ1hmSLK70Ryjp0FhiHXJtcv+AMs5rHqYG3oXzBezNFAdM2/0SDhkNzJ2hKlkriKLckWbtOkFRUv6/OQKQQrZQDANqydtymGAmzZ838neuOHxD0T/9GjoOExizbGxzbEDU15ebtqcFReN4ujRo42BtDa2q8mTJ5v2aDHY9bA3zXBsj4yH7YeeLz3uweB5bO8sAxpchuV35pHtmJ/sOFm9cPa2h9u2TxUsT14rRY8bv/fPE8uUZU4xZv4toeS1MnykYFlRpKz0B6obi5NtZ+8FTqmgRDtijCFr7Gkwz5SwJzs5cbLp/dJwnOg5EhoQGhb2ZP3S0+WEroXpHZ9gonYgeEPzxrN6gWwYbHDscVAcaOB5o3Pjd/bm2Ih5HhsoP9mT4z7CODgExl5LeOOyGtNADY5pUtRoDGhA+MnJ2BMJCnv7fNo8HJYR5534jEeUU246McYWPMaJda66ckg+ksVTZHkOB85ZhUPjX9VZZV79wnS4SszpcBrvkyLFpcytPc2mjgnnazinQiGhZ0Rx6U9td43xSFI9aciMyTJh+S/8RuRwGCWJ59MbGgxr6IDDXqyLcBgf97OOaTRpfN4KbDPcwuHfjJvtIhzWsdXrZ/2yvmmkGZ69aebV+m51cixPmnnk9QwHXgvDs51yfo/QmPbPpwXbI/NFQ8tw9EaYB6tTxO80yBw64t/cP5TRtGCY4YR7q4S3iYFgebL8WB68Jq6+Yv6toc6BeKv5ZRnxXLazgcqZ9UxoV5ivE+X9vcQpFRT2aienTDZLQikqfGXHoc5DxliZBij/BoOVwN4ph1IoHB2+drPyhwaLhpXDKZygHgqmwRvTaji86Tm8RC+DE2eWceGkIY0Chx8oGhb8zmEJjtkyHONiA+LNZsXJcXL2PNmIrH2E4dmYKDbWfp7L4Qnus2DjJAwTfv5AcEiLwrylYQuKWovMhPfG+o043FFhJso59MWytmAZ8iFFCrfHESWeRuxxIszFD8WtxSaektbed4RRiPgc0KaGTcbDZDr8ztVbPMZVefR2aOD5dHt6dLoR/L1Sv8zfruZd5jUsjd0NiBKx4fNGHCoLhwLI18dwPyfl2RY4lMc2QyGi0HDuh0OmDhGTRPFsh+pAsLzZAaAo05NkfVrQcHJI0zK8DHuy0AjTMLFHb9Uf65Np0QCzrFl/bGNsL0zTgu3AEhx+ZzuioWM7YvsKN0rMP9vnQIYqHBozTuyHCxnzYOVjqLbE66fxZb6ZHg0f2yHzRqFhnCw/XrPVPgeD6bBcBjOupxNeF+uY9cMOGq+LAt0f5pf39lvJL8vX6gBQuOh5htcB64RthO2MYd5vnNJlw2xsHC6hMePkLJeRciw8fAJ+MDheTuNCY8Q42DPmSiUKCp+LGJs4zhiggWBDYcVyPJqGnjctV4bw5W+8iTnGba3g4k3EhsebnL0aCgQ/2VCs1V3WShKG5Y3GY7zprclQ9nyZJnujFCfCa2daFBvmheEYB8/hajPmifHwb4Zlfnj+UIaAy2g5Qc13edFY10qZNHmbjMfA+YbeV6kcfUsqhZtvGuCyXnoJ+TH5x5UZ5zAoKFwsQYPNZ0to5LmMm6uwOP/CZ4LoHdKz5OtQmA7TZB1yuIvCz3qxVuiZJcfSAUjyJJvJ/WyJM3xlGF8cyWXFHIqzXtFCmD7DMZ56b72pb15zrrQBTtj3F6VwWG4sX35aBoV1b93gNDacyKUxsMqY4WgULE9iqLIP70xwo2BQONg+LM+S7YQGmJ0GbgzDtLnR6NBTsXr8DMdzGRfjYV4YjvlmO6Mx4qclTtbQqgXFgG2H+WcYnsdrZTgO/bAshoJpMzzToDfOMrD2M07Gbw3pWuXC8uQxxk2Dyf3ceG2Mi/lkGB6n0ba8boYNFybuY/tnmQ4l8LyvuFyXMC8n6ghY+WF5MA2WQ3j+SXh+eS8zv8wb42b58zy2hfDyYz6suVQeY75pM9geWB7cWI88n/FymJB2wCpThrPyxDbC8y0obLxGpvdOGF58u5zy51BodGjMaMg4YUwDNtTQhQWNS4Z4ITRe0szNRD57rOyt8sE89ooHGkYJh5XDG4Y3CSuV8KbmxHj4zclwbNgMyxuJDYiNjo2Gk548RljpPI9hGB/DWev/2RjY2KxeCeNieEts+N1Kg+LCxsU02Li4Lp3GjseGgmXpcrhNeSa4Es2zOHxaniui+KoTCnA4vG5/yCeCHI+smCwTngLQH5Y1J9EzojN6PQ/JB8uWQ40JngSzj0afaXDjfubFghPxFHlrvoXhKUysu3wRg/6eBb0cCkWCeDeWgBHe7Lw2l8Nl2gjn3Zhuflw+Yhwnfp04803BYH2y3Hn9hAbDGnYKL2MeZ/lzP2/+cMPTH57HOqRR4XncuI/tg+dyo/FifKxX1jk/GY7nWMOoVhoMZ4mblVeGZ15pPJkW4X7uYx7DjTKx0rHyw/ZqidZQME3myZS35Jltl38TXhPLz2qvTDO8XBiO+baEkeHDDSTzwePWPstLsOInDGOlzXjC62QgGKZ/3Q0E42TeadiZfwoK0w+HYZi38Gti/MPJL/PAY8wHj/O88LbGjftoE8LTtc634uY5xMoD47Pa4Imu8Z3OaXt9PXuw7PXyeQn2qlmU4UbJguGYpYyoDExOmWKGcCo7KrG1cYsZnsmRHu2EpAlmqGU4wqQoyvsD2g16ChyJoHizoxcuDMqp57RZZIoHhzcmJk00E7mcVGdPlRsbgqVr3M9JWg6V8JkJvurjQPsBE47zKZOSJh0Zv1cURbGgt8ahKdqS/l6Gcno47T+wRQ+E8yic9K3sPGwqn2JBOBZPz4RDJbGuOPPsBMNx7oWriihEfE3HQJ6NoijvTzj0x2FobpyX5BAeh/76DxEqp54z8ouNFBWKiFkGG/Sh299tJuE5Ds/xdI65UzQ4zu4L+MzYvNln414VE0VRjsJhLr7Ekh4K559UTM4cZ+w35cOhwJD+YmH2y3/hE2iKoijh0EPhIhfCCW8d6jpzvCMERVEURXn3ozPbiqIoSkRQQVEURVEiggqKoiiKEhFUUBRFUZSIoIKiKIqiRAQVFEVRFCUiqKAoiqIoEUEFRVEURYkAwP8HfVCCPIqazVQAAAAASUVORK5CYII=;" parent="1" vertex="1">
          <mxGeometry x="527" y="543" width="183.37" height="141.61" as="geometry" />
        </mxCell>
        <mxCell id="S7FMCEWkp8womzIyLcXB-4" value="Traversal Graph" style="rounded=1;whiteSpace=wrap;html=1;" vertex="1" parent="1">
          <mxGeometry x="370" y="201" width="172" height="60" as="geometry" />
        </mxCell>
        <mxCell id="S7FMCEWkp8womzIyLcXB-8" style="edgeStyle=orthogonalEdgeStyle;rounded=0;orthogonalLoop=1;jettySize=auto;html=1;entryX=0.5;entryY=0;entryDx=0;entryDy=0;" edge="1" parent="1" source="S7FMCEWkp8womzIyLcXB-6" target="S7FMCEWkp8womzIyLcXB-7">
          <mxGeometry relative="1" as="geometry" />
        </mxCell>
        <mxCell id="S7FMCEWkp8womzIyLcXB-12" value="" style="edgeStyle=orthogonalEdgeStyle;rounded=0;orthogonalLoop=1;jettySize=auto;html=1;" edge="1" parent="1" source="S7FMCEWkp8womzIyLcXB-6" target="S7FMCEWkp8womzIyLcXB-7">
          <mxGeometry relative="1" as="geometry" />
        </mxCell>
        <mxCell id="S7FMCEWkp8womzIyLcXB-14" value="" style="edgeStyle=orthogonalEdgeStyle;rounded=0;orthogonalLoop=1;jettySize=auto;html=1;" edge="1" parent="1" source="S7FMCEWkp8womzIyLcXB-6" target="S7FMCEWkp8womzIyLcXB-13">
          <mxGeometry relative="1" as="geometry" />
        </mxCell>
        <mxCell id="S7FMCEWkp8womzIyLcXB-6" value="2D dictionary" style="rounded=1;whiteSpace=wrap;html=1;" vertex="1" parent="1">
          <mxGeometry x="406.99999999999994" y="334" width="120" height="60" as="geometry" />
        </mxCell>
        <mxCell id="S7FMCEWkp8womzIyLcXB-7" value="BFS" style="rounded=1;whiteSpace=wrap;html=1;" vertex="1" parent="1">
          <mxGeometry x="567.68" y="470" width="120" height="60" as="geometry" />
        </mxCell>
        <mxCell id="S7FMCEWkp8womzIyLcXB-13" value="DFS" style="whiteSpace=wrap;html=1;rounded=1;" vertex="1" parent="1">
          <mxGeometry x="249.99999999999994" y="467" width="120" height="60" as="geometry" />
        </mxCell>
        <mxCell id="S7FMCEWkp8womzIyLcXB-15" value="" style="shape=image;verticalLabelPosition=bottom;labelBackgroundColor=default;verticalAlign=top;aspect=fixed;imageAspect=0;image=data:image/png,iVBORw0KGgoAAAANSUhEUgAAAZoAAAEmCAYAAABbDlZtAAAAAXNSR0IArs4c6QAAAARnQU1BAACxjwv8YQUAAAAJcEhZcwAADsMAAA7DAcdvqGQAADozSURBVHhe7d0NeFTVnT/wHySEAEkgQIBAkEhIgMiLvCgEFNCuQFdRttRtSwPaRetfKH2Kdv+1/lsQ23Vxd4U+uuDjC6vFlNpSLJa1SpQKVggqL/JigEAgSEiAAIG8AAES/ud75p7kzs3MZJLMTQJ8Pz7Xmblz78ydl5zv/M45M7QqLy+/KkRERC5pbZ0SERG5gkFDRESuYtAQEZGrGDREROQqBg0REbmKQUNERK5i0BARkasYNERE5CoGDRERuYpBQ0RErmLQEBGRqxg0RETkKgYNERG5ikFDRESuYtAQEZGrGDREROQq1//hs/z8fHnnnXf0gvMJCQl6/ahRo+Rb3/qWPiUiouuXa0GDUHnqqadky5Yt+rIJGJyadYDLGRkZ1dcTEdH1xZWus88++0wmTJigA2X06NHyu9/9TjZs2KAXhMrBgwf1eVyHQEpPT9f7XH9yJeOxMTLi/oWyocRaRUR0gwl50CA4vv/97+vzP/7xj3WwmO6x1atXy4svvqjPm0oG22Cfn/3sZ/q0bpmyMDlZkh3LiLv+Wea8sFZyK6zNiIioRQh51xmqE1QyqGKc4y+ocgDVjB0CCEGDCgfhExiCZo5k3DpR0od0s9ZVyMkdGyRzd5HEDJwt//3neZIWZl3VBEo2LZdn3lglHf/5A1kw0VpJRERaSCsadH+Z7rL6DPJPmzZN74N9g+5CS31AFvxygbU8J0vf+VjefTJNZO8y+Z/fBVMZhU7R3o2ydmOudYmIiOxCGjSYWQaLFi3Sp/Vh9jG3UX9tJfXRdJmkzm3IzfasIiKiZhfyigYaMoPM7NOoSQFhiBsna0xnQaZ12c7XdbmyfIZaN2O55FbmS+YLc+SBMZ5xoDGTHpWF79uqpZzlMlOtn/x8lr6YMcezXXLyQnXLYN1W9WWw3X5Ftqz6xUy563ZsM0Ye+NcMydZjTCWyY8XTMvOuEfr2Rtw10/t+7YqyJOMXj8pk6xgxVvXE61lSVGldT0TUzEIaNBjMRxdYXfwN+gezb0D5JwW3nNAh2nO5UUpkw7NzZGlON7n/ycXy3M8elH6lGyTjx4/Iok3WJj0myL8sWSwLvpOqL074P4tlsbq8eMn94lkTSL5kPDZH1sp4mT1/gcy+O07y1yyUGb9YJVmv/0ge+V2RDHv0GVm8cLYMj1BhYr9fo1gFZfpMWbKpQob/y3PqfhfIrJGRsuX5mTLj2Uz1CIiIml/IZ50Fgi9oImQwYcDMPrPDdcHNPPOhskgyX8uQDbFpkj41zVrZCFuWySqZI2+9ohrvaVPkwUeekxXLZsswVZGsWrPW04jHJMmE+6ZIWmJHvUvC4CkyRV2ect8wqbOm25IhuaOXyopfz5IH70uXea+8Jc9MjZGSNaqSebWrPPP2azJvurqt6fPkteet+820V14qqH7xc8noNk/e+mCFPPfIg+p+02X2f66Q159Mk9yV/y7LnMFERNQMQho0qEgCBQWmMj///PP6PIIGM83ssG/Q3W7Z78rCXy20lidk5j9MljkfdlMN7X/LrBRrm0aZInOenCgx1iXt1gmSNlDVOvlHdeXUOCq8ptvrnhgZP3a8Ppc6fYZMidVnPcz9Hjqq4say+y/yF5U76TNmS6qjvzB16kSZqI5w+26OVRFR8wtp0PTq1UuHRaBxFswwM9+fwbRmE0xmn6Bnq32ZKRkrMqxlrRztM0tWfLRC5o33ioaGG9lPkmrdVIzEoHjZWtT4oPFx+zHtPZXRLf2H6dMa1v3aFO3+SnaouqpmXMi23OkZE9pR2Pg4JCJqrJAGDbrG4KWXXtKn/qBqQdDgFwJMBWP2MbdRp+lL5cCBA3Jg3x75YNGDEpO9RH40e7lkh2oQPLytj4kFIRTg9tsG8R2gkvOl6v+p8uAvzbiQj2VK3SNFRERuC2nQoBox34dBtRIsbNuQ799oYW0ladpzsvjxNJFNy2TRGzdGd5EnjPKlbYIZF/KxjKz/7D8iolAL+WQAfB8GVQoqFF8D/k7mVwFg7ty5+rQhkn6wQGaPFcl6dZEs32ut1KKlbR91csTHuEqObcyjEYKpQEItISVVEqREtu/aYa0hImqZQh40CBnzMzIIGvzsjK8xG4zNYPYZQgb7+PrJmvpJklk/myVpxVmy7PnltgC5RW7BkMemjfIXrwAqkcwVGeL5BkzjJPRK0qfnzjfhhOLR42VSX5HslUscwapgBt4bq0IwYYGIqPFCHjRgwsbMQsOPbCJwsCBc+vXrV/3rzmbbxoWMZeBsmTdnmJRsWiYL3zBREyPjv5muYihLlsyaKU+/vkrWrl4uT8+YLIvDJkhIfposNUkmqJO1L/9clq1eKxm/Wibev+bmgrA0mf1kuqSqx7XooQfk0V8tl1X/q+57qTUD728lwt8XJaKWwJWgARMg+AFNzDTDZYSOCRdMBjD/fAAuh8qwufNkVt8SyXp5sWRYH+lj7l4gr7+YLhOiD8qq55+WJ15YJUUpz8jr89PE/CxnoySkywJ1+2mXtsiSp56QZTt8/UJB6MVMXCB/fHuxpA8RObh2kTw97wlZ8qdcaTt2nqxYPEuFKxFR83P9X9gkIqIbm2sVDRERETBoiIjIVQwaIiJyFYOGiIhcxaAhIiJXMWiIiMhVDBoiInIVg4aIiFzFoCEiIlcxaIiIyFUMGiIichWDhoiIXMWgISIiVzFoiIjIVQwaIiJyFYOGiIhcxaAhIiJXMWiIiMhVDBoiInIVg4aIiFzFoCEiIlcxaIiIyFUMGiIichWDhoiIXMWgISIiVzFoiIjIVQwaIiJyFYOGiIhcxaAhIiJXMWiIiMhVTRY0RbtXycIZYyQ5eaYsz7FW+lFxKFOW/2qOzLz/LhmRnKz2SZYRdz0gM+cskVW7i6ytiIjoWtCqvLz8qnU+9CpKJHvjKsl4a7ms2mICIk2eem+FzEqxLnrJl8xfPS3PrMgS/3ESJxOefl1e+0GqdZmIiFoyl4ImW5Y/8oQs35jrIzACBU2mLEyeIxk4G5cqE+8eLt3a4sI5yX1/rWRV39gwmffOH2X2YOsiERG1WC51neVLfnXIxEjqfRNVvAQpNlWm/GyFbP77u7L01wtkwS+xLJYVH78r80Zb28gOWfV+lnWeiIhaMvfGaBKGycSZT8nS9zbLu0sekCRrdWBJ8uDyP8riR9IkLsxaZbRNlfRpU6wLKsqys1WcERFRS+dS0EyUBR//UZb+cpZMTNF9X0FKktTB/rePad/ROqdUilRYZ4mIqOVydzJANdvYS8AxmsBK1jwhI/51refCd5bKgV9P9JwPZEeGzP9zjqT807MyNfw9eev9z6SwTK2PiJUhDzwq3x4cJXJqu/xp9Uey6xiuEInqM1amfmeSpKir7Ip2vydrPtwpR89e1JfD28dJyjfT5btDY/VlIiKq7Rr6Hk2urFpthYwyZWT1gE1QLmRnyIvvHZK4kffKpDEpEnulWHatWibv7t4uGa+ukUORQ2XSfZNkbFKUlB3ZJBkrNkqxtS8UZr4kL636TIoi+srYiffKvRNGSXxEkRQWekKHiIh8u0aCpkR2/GahLNtiXew7Sx6cEmNdCM7Rw1dk8o/myrfvHiVjJ6fLvBkjREWKbFu1RgoGPSz/9yEVMrePlUkPzZZJfdQOx7fL54WefUUOyefbi0Q6jZIf/Oi7MumOUTLq7nvl0Sfmy6NjWM0QEQVyDQRNiWz4j0fkkaVZ6pwSO0zmPf+UpDknC9Qhcsg4GW7vCksaLP3b40xvVaH01as8omTEwN7qtFiKjnvWVLt0QUqrrPNauETFRFrniYjIl5YdNBXZkvHjf5ZHX9thhUyqpP/6dZl9q762Xnr2socJtJNIZESnntLXkRWR7dpZ54y+cvutcSLnd0nGbzJk3c5CuegVOERE5E/LDZoja+XpB2fIwvdzPZfjJshTy/8oCybWr8vMCPf3SFuHW2cCi5/8uMy9L1Viz+fIptUvy3PPLpGMv+WIZ/oAERH50zKDZu9yefR7T8iqvbqOkbi758mKd1+TWQGmPrsvXOJu/67M+8V8mTttrKTEFEvOhgx5cVW2dT0REfnS8oJGhczMhxbJBv2zAjGSOnOpvLtstqTF6WtbABU4QydJ+k8el1GdRS5+tV12WdcQEVFtLSxocmX588skS88rjpG0Oa/LW7+cWPtXAppcmZR5iqsarWOlU7Q6DY9U0UNERP60rKDBLz1vslr00bNlwU+GqbhpCXJkzX/Nl/945W1Z9+ln8tnn6+W9116UdUdE4kaOFf6ONBGRfy0qaLI+W1fz+2UXt0vGrxbKQr/LMtngnH7smpsldWi8tDmdLZsy35P3/nej7CyNliH3zZXHJ8db2xARkS8t6idoMhcky5yV1oU6NfynbIiIqOm0zFlnRER03WiiioaIiG5UrGiIiMhVDBoiInIVg4aIiFzFoCEiIlcxaIiIyFUMGiIichWDhoiIXMWgISIiVzFoiIjIVQwaIiJyVbMHzfbi7dY5IiK6HjV50LxX8J5XuPxo6xyvy8tzX7fOERHR9aDJg+bL4h3yb3t+bV3yhtD5a8FfrUtERHQ9aPKg+Ze+s/Sps3IpvFCoK5v/N+gX1hoiIroeNMs/E4BQgfh28TpchscO91pHFMj2t+bLmgM4lyJTn02X4Xot1aXwgyXy8r5Uefwnk6Ql/pW19OOjhmuSoEGX2LDYYTIr6RFrTYhkLpTkOZ5/t9MufekBWTDRutCC5WU/JNOP5ViXfIh8TFbemSirP/y5rLZW+TItJUue7GNdCKRig7zwqbqtKh/7VJ2Wbfuek1cKN8sedX1U60QZE/+k/DR1pERZm4iUyp7sZ+S/CjZLztUISYn5gfx0yMMyqJ11NVxYK898ulJ6Dv29/LCbtS6EdMicHsvGqNp2yZi/RorGPC7z6vhnxRvXkHvup9a7tXPoXgsGzfXLla4zVCfoGsOp6RJbfmi5SwP9+CedD8iBA57lg5+lScacZFmYaV0dcvhnqUNz+xHhXSWlTc9aS2Irz/U9o1IkUSIkwsc2KeHRVgAMksTO+kyd9ux/RYdMbaWyYdtDMvfYZslrPUimdBopPa/mSeaxufLz7JqmpSDnaXniWJ4MTvqtrBzymCSWvyJP7ForZdb1+nZ2vyQ5cXNdCRk0dtmqkokdMIQNUUAIhfmSscO6GEKxKtCeffZZa3lcxsomeXl+hrrH+nDv+KhlciVoTLCgkoHVd7yjT/2FDbb7t6+8Jwhgu2l//5bXjLRgJD2yQJ4aLZKxybWkCZmeKS/ImxNWey/jnpQ0/aoMku/1G6NOx8hc5zZqea5Xf2wkPbv+QKZF67OBnX5FXjmRZ6tObApelVfPnhZpM10Wj39Nfn7bS/LmsIdlhLpq27E3JLMCG+XJxpNbRTrNlSdvVgHYfbo83CNFykq2ilrrgdspmyBzB+K4qWkMl3TV6NdVzbgjXiZ9Z6zEqjonm6FBAbgSNBhz0eMuFwvrDBsz3dk57RnbYf8dZ+oXNNe6goO/l7WVdQRI1WZZnb9VVRImjOpQlSO/3/umbIt8WL7f0Vpns+3kOhUjIhN6TpdB5h3RZbpM0fe/QbZ5hs9Eror075BoXRBJtJ2Xqj3yas46Gdx3rqS1tdbR9S9+iKSqirrohHmTENUW8qDR3WUqIP7fLb8IOmyczMSAhsmV/C0iab2TrMs1MhckS3JyzVK7+8vTLWbfJnlBzUae/ecIRoXQPed9fa4sn2Gts5aZr+da1wVJNdb/W1B3gJQdXl13GNls2/WEvHQhUR7u/5j0sbrlauRJTmmpOu0piZ26eFZp0ZIY7QmSgvOIIY/CigLrnNqzHOvbqv9Ecvb+p/wpcq7MTQymvPJhR4bMnz/ftiyRdba3Afrv51tjBMWbX9bbLPnAz/tE35b3/lrhOllSq8vG041jv29nlw7Gheq8/i31gaj6MZiupEJZ9xvvff0es89jM/ft6JrS25rH5zl+c7ue7T3PU86frfvFsXlxPOZa1zeQv+dd0cf1m3XytxAen+c9YdvORxde9WtjPb9mW7+vA7ki5EHzPypE8D2Zv6oKpa6wQXfZ+z6+N4N9GypzgQqC0U/JgkfsQeMJgTmHnpIPrLGcA0vTa43l5L6uImRpzXjPgfeekrSVc6oDY+JCrF8q6eo8JhzobRZi1gFuf7Is6rvUa9/aURdYWd7v5E+XRaJi7pdJftvrPbL66GYVRokyJaHuaqbsyAJ5oei0jOi10M+4SZ4UXMRplERH6BXVIlp5VmzTgZIoaV1SpODUK/JqQZ6cPrVa3jyeI4lxEyTt7JvyUmGMPHbLFN9dc3XQjcGfi2Ts46bv/1l5XD20TS/XNLzxk+ep9VMlRZ034wSN7y5Cg+YZSK8ed/gn3IPhCQo9+cB2PRpIZyDI6Y2yZE+qdTuYCYd9X5ZNXabW3PbjYyXO2rwWqzLI2WNvKgtFvXSKd9dU4c5sKe6cKkN8PPzhM3Bfnucp5Z+s+51hm5d3BmMq2ZJqO6bYA2sa3vAW7pLsMyJx3dXBDEtV91ss2Tsdt6Ua+Y0H1PGMnyR3h+T4PK/Ly5vjZKrZTi1Tk3Nkja+gU/vP/4PId8226jXEh5VaryG5JuRBc2vsMB0s+OKlr7BBEBnO7jJjR3F93gFZsujemipizso0eeqXs7wb+cwMWbTFsX7iAlk6XVUmby1XMeGR9MgK79lqKbMkXW2TdbSuysRTRaWPte2s9vUOu7oUqD+QDSpAolWABGiwj/1F1qowkvZT5B6/rZbl9Jvy85xMOdXuMZk7wN6ANkzigMXyggqrzK++J1N2vCKnOy2U/xqSKKuz3xDp9aRMqVgpz2wYL2M+TJOJ6x+SV4+hUqqDboRiVcjMk0m2hhPBMjVZNbEb16lmxSWFRVIksZI61HbHw9IlfZh1fsd62XRGHdt3bLOg1PU+j+tMnIy3N5gICdUApwyyrYufJOl+wzFehgyIVY1ids2nct2Ip0iKur+arqlC2bWvuBETIvBc26aEq2Mar26/eN+uBjzPKqhf3iTFyVOt52y4fGNMrGrE13tVFjoYVbSkmuc1oCCOT78utae2D5/xuIztXCybPnK2KWpb+0y2Yd9Q2zlDndwU8qC5t+e9MqvvLL9hg3AJLe9ZZwfeGy8bETz2Lq9NqlKZni6zHG1tUu80kS351UHj4d0FNmelWnXoqGMbpyRJwASEOTNlea35n0E6mykbzqvT8ClyVy/PKl82FKxVkaRysscU6elZ5duFDfLCzldkW9hEeXrEw5LSiFc6yuzbuoukDf2t/OmeLNl8T6a8NHyixBx+QV6pnC5zE/PkpZ0vSU67H8ubY34rc6NOy5vZT8vacmtfPwJ+Oh+kXrAz2bLLraSJj1MVhmqYXvY9a2r7HvViJo/3CkCIj1OBcKbIu2HuHOdo+OMlDo3Zn313JfkSPzRVNbMq/Kzt9XOTnCrfUPdX09B6AkxXEA3h47n2+Xj8MN2WnsWqBm0B63kM9grMCsYx3/AKBb+COD7P65Lq4/Z8hDXU2la9NuglPh3cY6bGC3nQIEjwfRln2DTZFzFVJbFiabrIygyr0c+Vo4fUyco51eFhlsnPZ2GDap4xmMmycfwH1cGFqqduSTLrLWxbU13Vd3wm5+g62aZOU7rcJYM8q2qrWCsbzuLMGBmTEHgsJO/wG7K6Up2pzJSnP03TVQaWp/X+IqtzcPkh+f3ZntJV95BdkkvY3ubS1Uv6tH8726C/3QUVNnkF8u3+j0nKiXWyumqkTBs0TVI6pMiUQT+QCbJVth0PXNUUFhVb55oDZmzhUzC6XDyNZ013itVthW6X6obVs7y82ccxd6kdNJN+gu4cBJlnvzq7p3T3mel68jTQqIh0420Cd0e2asaDrQ5Cz3t6s4/uS2cXoK7KHFVjo5juRLqWhDRoEDIYd8G0ZHvYYDwm9JVMAIkJqs4xkqR3X3Uy3TZ+4rUsEN3hlbnQ0+2mqqMV9eryquEZw1GLCrqs5yd7VVWB5cm2sxgHiZYRXf3GjMjxrbIZpx3GyIg6ZnbV9R2dLmG43FUiWqVIn/ZYkyeHz9pDoVTySj3HlNLJd9Bs2/+i7O70mEzvpvY+jzqrs3Tp4LlOOnQR/aGxInCroD+thlqPOPWpOlieQECj+fgY9Vn8zyYQrE+9ybYxFq/Fu9vGH8+YiVqscYHAA++e+9TVi9VtpgPFCqCi44E+zbcU6vkcrypRq6oIVLE2jPW60DUlpEGD7rH4yHgdLiZssC5YZlv7uE2PhlRCeflir1V0F9nKLAm22a+RKVnoOquviQv0F0fr7nKznNsgm/WA/AQZGaA/LOtUpv5y5IjYEboRD8Tnd3TU8kNrevOEJFx+QaapyyO7TNBjQpkFKyXHfKHz9EpZi9wJmyRjenhWeTn5krxyerD8MNWzb9e2XdX/y+SS/s6NUn5aEDFeU6B9iO8e57d7TDeqDW6kPA2znWeswD8zLlRs9V3pEHR2wzTUsHQdZHV113i6C4tkl9Vt5vmL8DSuOXvW6U/zXuM+LZGeFIDus+2yXlV/mAQQspxR/L8uniqwZQfxjSmkQYPusf8eudQrbIL9wiXGdsC5vVkftJzlMhM/S2Mbk0l6JF3SJUPmzKgZ+NdUFVM960xXQVmy8ZOaLfQMNut8jSTPeIzXF0IzZaFX9ZIrGzaqqOvbu2byQQBlp3brbjOJHiyD9Rpf9sjuEpz2lMFdfDXeebJ6Ewbip8kL+UEMwttE9X1MfoCfkbn4pjz5yVz59y/mysM73lTH1EWmJf1QRjjfJVU58tv9K6Vn4tMywfr5maieE1RluFne/HK15JTnyNo9b8iGsG/LhN6e6/3Sg+voXvIey8DU1TWYJGAfiA+W6b75s23spXCdvO3s8lLrMry6s6xfHojz3GP85PG6wVzzG8fA/46MIGYsbZcMr+rFagRrdbE56Ea6SLKtbjNDB9Dp7JoqJyAVTM062D1cUvWEiY3qkfg63sYdX/zk71rdnd5ja9vfetkzScBrUga1BCEfo3GGTbB6RHo+Ntu/QxNcyHjPOku+d5EkYeqxnnZsTJQFBz6Qp2SRTDbbYXkrQdLNZtbYju7ysq7PGutrjCZJZs3AGJA15mMCxmsMyJrq7HUM/u0v3a1PU9rf7H+2Wfl+ybuCM4mS6ONLl42TKN9L+70802WQRF/ZKmvPbpWyNmNk7qDfypN9ao8F5e3/N/lT2E/lh0m269pNkZ8OflgSy1+Uhzc/JL+92F+eHPpk7ZDyAd1LZjpzzTgIpq56z0QLHrrDMIW2ZuxFT2/FVFlrC6PIx+B2zbiDNYajf2bFbKOWjXHyjWDGSLzGd6ypznU2gmiki6XYGSgIoDNqfa1JB76Y7ivr/gN217lj+D+o5xrH62fQvnHH5+nu9ExnNs+vmYYeXJcmNS3XflQTgYHpzMGEDbrMEE6AfVDVIKjwTwbUp+uNiFoIfEHy5WxJdUxbpxtTyCsaw17ZBILrTcjg1wJM1xlDhujatf2jTSGeBEDXMteCBkzYYPaZEwIG61ff6fmlAAQMpkJjHfZhyBBdo2y/BMCcIWjSf/jM/A4aOIMEQcNwIbqG6e4yVcmos/h5mepfWKAbXrP8C5tERHTjcLXrjIiIiEFDRESuYtAQEZGrGDREROQqBg0REbmKQUNERK5i0BARkasYNERE5CoGDRERuYpBQ0RErmLQEBGRqxg0RETkKgYNERG5ikFDRESuYtAQEZGrGDREROSqVpWVlVevXLkiWIiIiEKt1VUFZ6qqqkSFjj7FYq0mIiJqlOqgISIicgPHaIiIyFUMGiIichWDhoiIXMWgISIiVzFoiIjIVQwaIiJyFYOGiIhcxaAhIiJXMWiIiMhVDBoiInIVg4aIiFzFoCEiIlcxaIiIyFUMGiIichWDhoiIXMWgISIiVzFoiIjIVQwaIiJyFYOGiIhcxaAhIiJXMWiIiMhVDBoiInIVg4aIiFzFoCEiIlcxaIiIyFUMGiIichWDhoiIXMWgISIiVzFoiIjIVQwaIiJyFYOGiIhcxaAhIiJXMWiIiMhVDBoiInIVg4aIiFzFoCEiIlcxaIiIyFUMGiIichWDhoiIXMWgISIiVzFoiIjIVa4HzZo1a+TEiRP6/IcffqgXwDpcV1ZWpi8TEdH1ydWgQZggSEzQlJeX6wXMdeYyERFdn1pdVazzIXXo0CHZtWuXDpOoqCjp0KGDDhdzHgGD67p37y5JSUnSt29fa08iIrqeuBI0CJnNmzfrUKmL6Tq75557dOjU5fz58/LJJ5/IqVOn5LbbbpP+/ftb1/iH4/niiy+kY8eOMm7cOGnfvr11DRERuS2kQWO6wlDJoHpJT0+3rvEP+2CsBiEzZMgQXe0ECih70PTq1UvGjh0rERER1rW1Xbp0STZt2iTHjh2Trl27MmiIiJpYSMdoPvroIz3Yb7rIDIQJqgr7YsZtzHa4jH1xG8FAMJ09e1ZOnjxprfEN15eUlOhqhoiIml5IgwYVCRZ7yCBUULGgK82+mEAysA/2TUtLs9YE1rZtW71Pfn6+VFVVWWu9YT2uj4mJkc6dO1triYioKYU9o1jnGy02NlZXGkePHpXLly/LgAEDpLi4WF82IYSBfwQEQqZHjx56H3S14XTMmDFeIeULbvfIkSMSHR2t9/n666+lS5cuPvdDNbN371490QD7XbhwQfr06SNt2rSxthC5cuWKHDhwQD7//HP57LPP9HlUQJ06dfLqksvOztYBicAqKCiQrKwsvQ8eB4LMTHbAOiz79++XiooK3V0XFhZm3UqN48ePy9atW2Xbtm2yfft2OXz4sO4WxP3ajw/r1q9fL2fOnNGPF2NNOA48FtxPaWmp7kJ0QsBmZmbq+8YxEBE1l5BWNGh87d+bsUMAmcVXKGBsB/viNoKFBjY8PFyPv/iC9ZGRkbqhRcPshIrnyy+/lD179uhtMN6DIERAoTFHI+508OBBHZwI0dTUVN0tiMYflRtCA0GBSQpxcXHy1Vdf6du2w31i3caNG3UQ3XLLLTpgu3Xrpm/773//u8/7xX47d+7U94PQbNeunT5mBJCvKeJ4DAi/+Ph4aw0RUfMIadCgYWsoM/vMnAYDjToadAQbqhA7XDZVE6ofX9Cwozq544475Pbbb5ebb75Zbr31Vhk9erQOJlQ3dggANPLYvl+/fjJ8+HAZOnSoXo+wQfhgHSoo3F7Pnj31MdiDAJUMqh0EGmbaYR9sjy5DLNgWAeXsDkRliHX333+/nmQxaNAgHU7nzp2T06dPW1t54DYQNKj0UG0RETWnkI/RTJ06VVctTmhwnRMB7LAP9kXjG6zWrVvrcLh48aIUFhZaaz3QdYRuMXSVtWrVylpbA7PRUPEgiJzHi+4xNNIIK2xn17t3b68uNVQVCDIEnr0Ly1RSqFpMNYWgQFcfZr2lpKTo47fD/qhAUKU4AxePZeDAgV7BgW1xGeFlh5BB2CDoiIiaW0iDBgGC8Rb7J3hT5WC9mQiQm5ur19krIOyDbRBE9YFAQIOOysSEAsY1ECJo/FH1+IL7w5KTkyMZGRley9tvvy15eXk6wNDAGwgUZ3WErjsEBh4LJijY4To7hA6qH9yGrynWuB0cL47fGTQIFOd9owsS4zb27jOEGV4HhCUqHiKi5hbSoMFMMoSFvZFEtYAqBeMQ9sX5BU3sg32x1Aca84SEBN3YmqoGDS2qEax3Vg1GZWWlXpKTk3VXmK8F3VPO7+j4qo7A33o7fGUJ94nbdIaQgQByBhxgTMY+SQDw2PAYETKoYgDPI54LhG+g7xcRETWVkAaN6foyAWICB5cxDmFffG2DfXEb9YXuL3xPBt1SaKTRbVbXJ3oEAxY01omJiT4XNOL+AqGhcJ+ovJxBYqDqQdgEGxJmHAbhimoGX2RFmPmaiUZE1BxCGjToykFgYKwGAYJZZM5uKeeCbQCD4yZ86guf9jF2gkYWXW/4RI+xmUCNNRpz7IeuLDTuTQHHgy423Ce6x5wQFBjYx3H56lrzBdsiaDFZABMD0IWIasZflyERUVMLadAYaEzRPWaCwwSQgfNmijNOsS2qnMbAwDgG4PF9FzTSaHwDQQONBrmoqKh6zMgOVREa71BCdYRANGNDCBY7jCuh+w/HXp/ZYqjcUCWhosOvJWB/f12GRERNzZXWCOGB4EBlAziPbjGsx4LzJlgwpbexIQNomBFg6DpDQxtMRYApyuh62r17t/79NEx3RgDgC5L4EiW6oEINQYOZcgg3jGnt27dPV2FbtmzRX8DE8eC7NfWBfdBViAkMmJDQ0MqQiMgNrn7sNbPKTMOHU/t5hI595lljYVwCVUqw4xOYxYUf2cRUY1QvaOwROvg2Pb4Hg9sKNVQa+K7NqFGj9P2Y2Xjo7sPkA1R39R3ER6WEcEWXHEIn2G43IqKm4Nq/R0NNC18CRbehvcuSiKglYEf+dQDjM5gEgO4zLERELQmD5jqAkEHXG8Z/nN+1ISJqbuw6u0ZhejQmFOB7OThFJYPfaGPQEFFLw4rmGoZKBmMzmAiAX4xmyBBRS8SKhoiIXMWKhoiIXMWgISIiVzFoiIjIVQwaIiJyFYOGiIhcxaAhIiJXMWiIiMhVDBoiInIVg4aIiFzFoCEiIlcxaIiIyFUMGiIichWDhoiIXMWgISIiVzFoiIjIVQwaIiJyFYOGiIhcxaAhIiJXMWiIiMhVDBoiInIVg4aIiFzFoCEiIlcxaIiIyFUMGiIichWDhoiIXNXqqmKdd9XJkydlz549UlpaKmPHjpWuXbta19StMftmZ2fL9u3brUt1w22PGzdO2rdvb62prTHHQ0R0o3G1orly5Yp8/fXXsn79esnMzJSCggLrmro1Zt/GaNWqlXXOW3MdDxHRtc6ViqaiokK++OIL3RhfunTJWusRHR0dsApozL6+5Ofny/Hjx61LvhUVFcnp06f1+SFDhujFCPXx4PZQDV2+fFkSEhL0UpfCwkI5cuSItGnTRgYNGiRt27bV60tKSmT//v1SWVmpLxsRERHSq1cv6datm9/gJCJqKq5UNGj4ysrKdMOMxhGNKRrlYDRmX1+w/8iRI/0uffv2rW6o0TDjsl2oj8fuzJkzOnACwfUIwkAiIyOlc+fOeunYsaOuvg4fPixHjx61tiAiaj6udZ3hU/WAAQNk4sSJctttt1V/Cg9GY/atL1QKZ8+e1ecRIlFRUfq8nRvHg9u4ePGinDt3zlrjG65HFRQWFmatqS02NlZSUlL0MnDgQF314JhRpTmrMCKipuZK0GAg/e6779YVAxrB+nTfNGbf+kJFcezYMX0e1cxNN92kz9u5dTzh4eG6QkK14q/3EutxPUIp0OQEJ2yLpaqqyu9tExE1lRt6enMw1YxbEDKdOnXSM9f8VTVYj+vRJRaoonFCdxsqGQQUAo2IqDndsEGDgXQzSaBLly46aJpaXFycrpD8jcFgPQIG4y51jeUY6GbLy8vTQdO7d+96BRQRkRtu2KBBNWNmmnXv3l1iYmL0+abUoUMHXUUh9M6fP2+t9cBlrEfItGvXzlrrG2albdmyRS87duzQVRDGa7AvEVFzuyGDBo24qWbQ2GMqcHNANRMfH69ntmG8yA7VDMZYevToYa3xzz7rDN1x2A9fVMX3foiImtsNGTQnTpyobtjxHRh0nTUXTJXGwL19qjO6v3AZ1Q6CsC72WWeYHTds2DC9DpWOqdqIiJrLDRc0+LSPoDGNOqqZ5hwwxxgKwu7ChQtSXFys1+EUYyxmDKe+cJt4XDh1VkpERE3thgsafPnSNL7oaqrPt/rdguPADDH8hhoC5tSpU3pcpjFjLJjVhpAyX0YlImouN1zQ2LvN0L3UlFOa/cGXKxF4GDtCdxdOUc0gLBoKFRuqN846I6LmdkMFDRpeVAsGGvfWrVvGU2C+K4NJCggYXG4oVDH4Iioeb2Nuh4goFK6boEGX2IYNG2T16tWyb98+a603jIOYL0diEB4VTUuBCQGYYo1v8mPmWH1+5gZjOjk5OXrBY8cUZ6xDkLakx0hEN6brJmgOHTqkf6kZYXLw4MHqgXU7hAwCCdCwBzOjqymZ7jKc1gd+Mw3dgVjwSweo0m6++Wb9A6EtpWIjohvXDdUK4QuQaJQB1UNdX4R0AyqVESNG6GnITqhkcJ1z3Aiz4gYPHqyvs1c6eAz4kc/Ro0d7LcOHD9dfQg3V77IRETXGdRM0+PSOn5FBePTr189nlxGCxmgJkwCIiG4ETfZPORMR0Y2JHfhEROQqBg0REbmKQUNERK5i0BARkasYNERE5CoGDRERuYpBQ0RErmLQEBGRqxg0RETkKgYNERG5qtmDpuhikXWOiIiuR00eNEfK8rzC5ZPjG70uZ5/Nts4REdH1oMmDpujiKdl6aqt1yRtC50jZEesSERFdD5o8aFI7pepTZ+Vy/sp5XdmM7DrSWkNERNeDZvlnAhAq0D68vQ6XuMg4r3VEgRQVFUlubq4+n5SUVO9/kfRGVVFRIXv27JGbbrqpRT5nLf34qOGaJGjQJdZVhYmpZkLl66+/lk8++cS6VGPcuHH6zXotOH7huGwp2iKVVVesNR5hrcNldNxo6dGuh3x55kvJLTloXVNbx4iOMq7HeIloHWGtqS2/PF9XkWVXSgUveRu17fCuwyWhfYK+3t99OG/7TMUZ3fVZerlU3UYbGdhpoCTHJOvrDFxffqVM7uh+p4S1CrPWhgZCJi8vT/r376//hVESOXLkiJw6dUoGDRrk9S+wOjWmIb9y5Yrs3btXysvLrTUe+KfH67rfYDForl+udJ2hOkGjhlPTJbZXXXZjoD86OlomT54s6enpesE/Y4zwQQi54fz58/LBBx+E7PYvVV6SqqtV0lo1yG3D2tYsqmE3jXQbFTpe11kL9oEO4VEBQ2bnmZ3y+anPdMi0D++gQ/+q+g/3bVy8ckGfhqvwsN8HAqmV+g/Kr5TLZyoUw9Xx3NnjThWC3eWrs19JwfkCfT0Uni+UkxdPyC2dBoU8ZOD06dMSGRkp7duz8g1k3759egk1/HPj9n82vEOHDrJr1y6vf702GG4dH7VMrgRN0cWTOlg2qkoGvpnwj/rUX9ig4nFOEMB27+e/r0OqPpKTk6V3795y/Phxa03LduXqFVVhVKnGv6vc13tK9YLnDF2KgEbbfh2Wu+LvlkgVBAiG5Jh+ejtf8s/ny+HSQ2rbSL3P5F6TZbyqUO6/6X7pE9XH2krksjoOGBw72Ot+sC0qF8Brcanqkq5Mu0V2U9VMqoS3ClfBclJff0VVZfvO7ZVeqkrC46Gm0adPHxkxYkRIqor6uvnmm6V169ZSXFxsrSGqzZWgiVONkGfcpbzOsDHTnZ3TnrEd9q9v0FyrottEW+eCk1d2WD0/F3SDjwrFF1RKh0pypUpVL6mdbpHYiFjrGtFVirPiQHddoDEy3F6YCpaoNlH6MioehJ1xsPSgVF6tlP4d+1tr6HqHcENVc+GCpyIm8iXsGcU6HxLoKkMXS2JUopy7dFYv6FrBZfTlHyw5IKes8EAYmeuhj9qmQ3gHfRvYDrCN+WTvdO7cOV25oE/XdKWgnxcDxejjdfbzfv755/Lxxx/rUh8LugE6duxoXevpFlu/fr1s2bKlepuLFy9Kr1699PXY/9NPP9XboV/cfv3ly5f1dVjMvuHh4XX2NR8pPyLFFWekc9vOejwmGBdUwOwu3q0D5NbOQ3V3mC/nLp+TnHM5EhEWoaqiW6orEydUKYdKc9XpZUnokFAdJE7Fl4r1mFLPdvH6PvE65ar9MI7TTlVMe9Qxpcbeoh9LfeF127lzp+6SzM/P10tlZaV+jQBdM3hO0aDhuS4oKNCfort06aI/UdthPOGrr77S13ft6l1ZobumsLCwej+z7eHDh33eL5j7Pnr0qL7eeb94L+A6jFdgjAHHhi5dNMK4DvdpbtvfMYPz2MDcN47TfkzYFuMyeHy4D7znsR9uf/fu3fp9iQX3eeLECX0dnDx5Ur/nsa85LtynOV5/qqqq9D5hYWG1nlOsh4iICH2sOEX42JljBDzfoTg+jNfhsWIbf9vh+cNrEhUVpV/jgwcPet0n/kbJfSEPGowHHLQGlfEpOlDYoKEyp2CC5oAjjOoTNDt27NCnt956q/6jABMC+GP95je/KcOGDdN/tBjLsYfNgQMHdGjceeedMmTIEOnZs6dkZ2frPzIEBq7r16+ffoOPHDlSb2dCZvPmzdKuXTt9+2ZfNJ7mD8gfNNwIGiyo4vaf2y9nLp2RThGddMXgy2FVzWBwv4tq0Pt3HCCtWnnGUJxOVZzS2yE4qqRSNp/M0mGA57eiskI/r61btdZVCL6/hAA7Wv61Pg4ECAKoS1vV6KltIKx1mO6KK7lUIjERMfp2Si6X6AkBOO52qhpqyIQPPJ94nrt3764HlhMSEvRAP0KntLRUN2xoPPBcl5WV6dd16NChEh8f77PBrqtRNK8nTjHAjYDA+8XcL15PM9EAx5aTkyN9+/bVExB69OihbwMLXlvcP96HOE683jh+dN2akMF2ONbExES9L4IS7zdfx41JGtge15vGEg0lxqVwnbk/3M+xY8f040eDjvvHh59u3brp48bjwPOEsSw8LrwX0aAiQNGQ4z7QIJvnGseOv6NADa+/59QcC44Z+589e1avc26DCRxYh+cmFMeHEMK2AwcO1DMPsR3+vhEmeO5M0OG+cXvYFu8f8xoikPG8mueU3BXyZzgusqsKjnLdcOWV5cnIrrfpBs10o/nqNnMyIRMMvAkxOJ+RkaEXfKq55Rb16V01HgbW4Q/Avh7hlJKSot+YaFggNTVVrzfwh4E/ZvxRBIL90YDgDWxgX9x+XdAd1Vk15t1VNYNuKwzSHz9fKJ+e+FRKVSPuhHGQo2VHdbjcFNWnOgR88Uw0qNRhsE8FQbQKHFQflVev6A8DqIoAQYMusW7tuutuuAgVcNg3R+3z+anP9TFCTJsYGdFlhJRdKZO/FazXYzPDuwzXAYX7QJcZtn/nyDtqWS2fHP9ELlZe1Pv6g8YBjQieZ4w1GGgw0Tjj9UVj6wY0bJcuqTBVjY1hGmowx4YPI6YyRUOH48SncTRWBhpi7GdvqPGeQINnQgPXIbDs29jhvtHo2W8XjSHW41ixgHk+sL4h8HjszzUaehx/fZ9nPD8IYVQwaMTxuPA34HzNcB63Hxtb03UbSF3Hh1PMfnPOPMQ+2BevGY7NDu8v+2uI48RriIAm94U8aFCVYJDYX9ggXEIJn3zss87Gjh0rmzZt0t1chmnI7J+yAOW06YoxcH7jxo3VwYU/JOc2TggvVDOopvDpqT7QUN8Vf5fc0f0OPY6F8+3C26nG+7x8XX7U2qoGqpRSPXusfdBdbRiPGdV1lJ4M8A8975HBsUN0UKHKRDXZLqydvt87u9+pB/+n9J4iQzpjm9Y69NFlZuA+/1Ed57TEb+tTVDz7S/ZLUnSSfr0x6+zWzreqZZjeb+eZL609fcMfOhp7X42Qr4Y3lPDpHI0kPm37amTNsaGhs0Nw4LjsjRQum0Ax8J7ABxxUNsEwn8TxfgN8GkdjiAYSIWOOEfeL4zYVe33ZgxV8PR5/8HjQtYxl69at+r0/ePDg6vD0F5b4Ow02GOs6Ptw2Hr+vmYfY1xkg2Nf5/jKvFZ5jcl/IgwZBgu4TZ9j4G0cINYQJusZQxaDRN9UGAsOEh1m2b99u7eWBcPrDH/6g/7BNcAVTleCPbfz48TrMTHWFrqCGwIB9z/aeMSF8Z8XpWHm+/s4NGnjMJAvEU+200lVMd1WtGPHt4/V0aHSNoRLxBTPSYtpEy+Wqy3Lu0jlrbW37zu3TU7F7qWNGhdM9spv0je6rF5wvvnQ2YFWDP3R8Wm0OaBzRSKIRxOuFxtMeCjg2vH/MdWbBBwrnBw9fDT8+YaNbB+9F7IfxBOcnbSc0lPi0jvtGsOA20UgigNBgY3+sR6PtrzJyEyoG+/TmAQMGWNd4mLDEMeJY8TjweJzh0RgmiOnaEdKgQchgmjKmJdvDBn3+oa5kAsEnHfzhg6k2EBgmPOwLqiFsj/EANAi4jC60hrj99tv1bY4bN06HmL2qqg/TVdWmlXdDgmBAlYBKo3tkTXD4g5ls+A7OFRUWmEbt1FqFkL8JAoDJBrgvTGH25dTFU1J4oVAGdByotq3S3W2RqhozcB5dfb7u2zCfVkMJDbDpIg0GGks0miYU0P8PODbcDt4P9sbVLPbuHX/woQXb4sMPqiNMeAj0KRr3abqJTLcZHg8aaoQb1vurAFsKVIA4RlQVOF4ItpoJBv6e6doS0r9wTGv2zEYqrw4bfwP5vpht7eM2HRrwkzR4g+ONbqCL7MyZM0F1Ddhhe+xXXxjnwRdH6+pyQ6A4KwrPzK5Cda6VdI70/hR4VlUHmNGHCqKL4zpfOrbpKNERMeo+SuXrspovmKJ7C6GF7jeEESYGmAkZBirRsstlOogw8O+EcZ2vzu6R+HbxulpCGOGLnKiADHwJFNOfA32Z1HRh+OoeQyNVn759Jzz39grCfLr2B6GAqtTsF+jY6gu3he94QaCgwYceDJKjiwpdQOaxY3+8p7HeX7dRS2E+6KFHAd3W6GUwz2Uo4Pb9ja8gnPmF3pYnpEGDhgt9/PawCfZ7MBjbAef2Zn2w8OZG14Z9TAaDyvDFF194NfyoYsw3/M0bE7NTDEyLdI65mAoJf0AG3vCY1mngPjBbCdsF+mSNT/qfF30ma4+ulb+f+Lt8VPCRfFz4sR5c79G+hx73sCuuKNYVQoc2UXpcxWnXmV16ID7rZJYOMTT8A2IGCL4vs6t4p7r9D+WDYx/I7uJdetwmJaa/DgGE24fWdZiE8Nf8v+rbgoGqWsEMOKdDpYekQoXVgI6erhN043Vt21WP++A6LCcunqzupvMHDRCCGZWEvdsKIYOxEzOTqr5MFxRmRBn2iR+ABv/QoUPWJc/gNu4XrxmqCBwb3kM4NryeBrbDfvYQ8wXb2EPFBFagRhf3i8eL47AHimm8sd5UOYHgvWe64JqaeQx4vP6qr8YcHz4QoLtz//79+vkw8P7BRARUmnU9P9S0Qj69GZ+A0V/vGWj2/+nRqWf7nrqiweCz/Xs1WO8PpnViSjLmxqOhx4Lz6Kqwd3+h4cCbD991wDRksy0+LWM79IPjDxkL+tLN9ZilhkYBDQqmZWI7LOjqQdcYtsEnKzSGCCWzL74ngFkt6EoLBFNWz6hGHlVNmao6UFlgSnNSTJIeUEdQ2GFaOH5jDM8Tvu/idOLCCT01GlUKrseAP84jALAe+6LiwLpRcaN1CABmoSHgy9TrheNAtRIdEa2PITG6dtBjNtxOFVYIGfsvAOA8qi5Mjcax9OrQS088CDQzDtCnj4YJoW++q4KGHTO0nAPxCH68bmhsAnW54TYxgI6QMN+zwMwoPOdmf5w3HzZwPb7/gv3s4w4Yk8B7AN8BMbeD7fD6orEDvA/RYDqPCd/VQFia/bBNML8LhtvA40QD3bmz5ztJWIf3GioaTAPHcRr26c2mgUVDjg9NCFpf31Ox74/nCevx/sfj9QXPGY4J73/npBpfzP0jHPEaOl+rxh4fjgF/l/bvP+H5xZibfV+sQ68Ebt/+vGM9qh/cnn17codrP6qJrhhMZw4mbNBw4ocbwfxDaKiK8E8G1KfrjYhaBjTk/IFMMkLadWZn70YLBNebkMF3bEzXGUOG6NplupYb0u1J1x/X/5kAVDaY3oyZZ3YIGEyhNd8kR8BgxhrWIWAYMkTXJlPNoHsrmJl5dP1r0n/4DKGDWVPgDBIEDcOF6NplAgYTLjAZhyFDRrP8C5tERHTjcG2MhoiICBg0RETkKgYNERG5ikFDRESuYtAQEZGrGDREROQqBg0REbmKQUNERK5i0BARkasYNERE5CoGDRERuYpBQ0RErmLQEBGRi0T+P3Fs+grsWignAAAAAElFTkSuQmCC;" vertex="1" parent="1">
          <mxGeometry x="206" y="550" width="203.61" height="146" as="geometry" />
        </mxCell>
      </root>
    </mxGraphModel>
  </diagram>
</mxfile>
